G04 EAGLE Gerber RS-274X export*
G75*
%MOMM*%
%FSLAX34Y34*%
%LPD*%
%INTop Copper*%
%IPPOS*%
%AMOC8*
5,1,8,0,0,1.08239X$1,22.5*%
G01*
%ADD10C,1.000000*%
%ADD11C,0.609600*%
%ADD12C,1.524000*%
%ADD13P,1.649562X8X202.500000*%
%ADD14C,0.203200*%

G36*
X150158Y-485D02*
X150158Y-485D01*
X150227Y-480D01*
X150255Y-466D01*
X150285Y-460D01*
X150342Y-420D01*
X150404Y-388D01*
X150423Y-364D01*
X150449Y-347D01*
X150486Y-288D01*
X150530Y-235D01*
X150539Y-205D01*
X150556Y-180D01*
X150567Y-111D01*
X150587Y-44D01*
X150584Y-14D01*
X150589Y17D01*
X150573Y84D01*
X150565Y154D01*
X150550Y180D01*
X150543Y210D01*
X150501Y266D01*
X150467Y327D01*
X150440Y349D01*
X150425Y370D01*
X150389Y391D01*
X150339Y433D01*
X122749Y16322D01*
X122723Y16331D01*
X122700Y16347D01*
X122629Y16362D01*
X122561Y16385D01*
X122533Y16383D01*
X122505Y16389D01*
X122434Y16375D01*
X122362Y16369D01*
X122337Y16356D01*
X122310Y16351D01*
X122250Y16311D01*
X122186Y16277D01*
X122168Y16256D01*
X122145Y16240D01*
X122086Y16156D01*
X122059Y16124D01*
X122056Y16114D01*
X122049Y16104D01*
X121756Y15488D01*
X91183Y33139D01*
X91168Y33136D01*
X91168Y33135D01*
X91167Y33135D01*
X91137Y33083D01*
X91048Y33060D01*
X91046Y33055D01*
X91042Y33055D01*
X90242Y31899D01*
X90242Y31895D01*
X90239Y31892D01*
X90242Y31706D01*
X89775Y31226D01*
X89775Y31224D01*
X89774Y31224D01*
X89393Y30673D01*
X89210Y30640D01*
X89207Y30637D01*
X89203Y30637D01*
X88158Y29561D01*
X88158Y29557D01*
X88155Y29555D01*
X88138Y29442D01*
X88136Y29430D01*
X88134Y29418D01*
X88132Y29406D01*
X88127Y29371D01*
X87587Y28973D01*
X87587Y28972D01*
X87586Y28972D01*
X87119Y28492D01*
X86933Y28489D01*
X86930Y28486D01*
X86926Y28487D01*
X85718Y27598D01*
X85717Y27593D01*
X85714Y27592D01*
X85656Y27415D01*
X85059Y27112D01*
X85058Y27111D01*
X85057Y27111D01*
X84517Y26714D01*
X84333Y26742D01*
X84329Y26739D01*
X84326Y26741D01*
X82989Y26063D01*
X82987Y26058D01*
X82983Y26058D01*
X82897Y25893D01*
X82258Y25692D01*
X82257Y25691D01*
X82256Y25691D01*
X81659Y25389D01*
X81482Y25446D01*
X81477Y25445D01*
X81474Y25447D01*
X80043Y24998D01*
X80041Y24994D01*
X80037Y24994D01*
X79925Y24845D01*
X79262Y24753D01*
X79261Y24752D01*
X79260Y24752D01*
X78621Y24552D01*
X78456Y24638D01*
X78451Y24637D01*
X78448Y24639D01*
X76963Y24432D01*
X76960Y24429D01*
X76957Y24429D01*
X76821Y24301D01*
X76588Y24307D01*
X76587Y24307D01*
X76152Y24319D01*
X76151Y24318D01*
X76150Y24319D01*
X75486Y24227D01*
X75338Y24339D01*
X75333Y24338D01*
X75331Y24341D01*
X75256Y24343D01*
X75255Y24343D01*
X74812Y24355D01*
X74811Y24355D01*
X74368Y24367D01*
X74367Y24367D01*
X73924Y24379D01*
X73832Y24382D01*
X73829Y24379D01*
X73828Y24379D01*
X73827Y24379D01*
X73825Y24380D01*
X73670Y24275D01*
X73013Y24403D01*
X73012Y24403D01*
X73011Y24404D01*
X72593Y24415D01*
X72592Y24415D01*
X72341Y24422D01*
X72213Y24557D01*
X72209Y24557D01*
X72207Y24560D01*
X70735Y24847D01*
X70731Y24845D01*
X70728Y24846D01*
X70558Y24769D01*
X69931Y25003D01*
X69929Y25003D01*
X69929Y25004D01*
X69271Y25132D01*
X69167Y25286D01*
X69163Y25287D01*
X69161Y25291D01*
X67757Y25816D01*
X67752Y25814D01*
X67749Y25816D01*
X67569Y25768D01*
X66989Y26102D01*
X66988Y26102D01*
X66987Y26103D01*
X66360Y26337D01*
X66283Y26507D01*
X66278Y26509D01*
X66278Y26512D01*
X64978Y27261D01*
X64974Y27260D01*
X64971Y27263D01*
X64786Y27245D01*
X64269Y27670D01*
X64267Y27670D01*
X64267Y27671D01*
X63687Y28006D01*
X63638Y28186D01*
X63634Y28188D01*
X63634Y28192D01*
X62476Y29144D01*
X62472Y29144D01*
X62469Y29147D01*
X62284Y29160D01*
X61843Y29665D01*
X61842Y29665D01*
X61842Y29666D01*
X61325Y30092D01*
X61306Y30277D01*
X61303Y30280D01*
X61304Y30284D01*
X60318Y31414D01*
X60313Y31414D01*
X60312Y31418D01*
X60131Y31461D01*
X59779Y32031D01*
X59778Y32032D01*
X59778Y32033D01*
X59338Y32538D01*
X59351Y32723D01*
X59348Y32727D01*
X59349Y32731D01*
X58563Y34008D01*
X58558Y34009D01*
X58557Y34012D01*
X58386Y34085D01*
X58133Y34705D01*
X58132Y34706D01*
X58132Y34707D01*
X57781Y35277D01*
X57824Y35459D01*
X57822Y35463D01*
X57824Y35466D01*
X57258Y36855D01*
X57254Y36857D01*
X57254Y36860D01*
X57096Y36960D01*
X56949Y37614D01*
X56948Y37614D01*
X56949Y37615D01*
X56696Y38236D01*
X56769Y38407D01*
X56767Y38412D01*
X56769Y38415D01*
X56440Y39878D01*
X56437Y39880D01*
X56437Y39884D01*
X56298Y40008D01*
X56261Y40677D01*
X56260Y40678D01*
X56260Y40679D01*
X56113Y41333D01*
X56213Y41490D01*
X56212Y41494D01*
X56215Y41496D01*
X56214Y41496D01*
X56215Y41497D01*
X56131Y42994D01*
X56128Y42998D01*
X56129Y43001D01*
X56012Y43146D01*
X56045Y43442D01*
X56046Y43454D01*
X56047Y43466D01*
X56049Y43478D01*
X56050Y43489D01*
X56050Y43490D01*
X56051Y43501D01*
X56052Y43513D01*
X56053Y43513D01*
X56085Y43812D01*
X56085Y43813D01*
X56085Y43814D01*
X56048Y44483D01*
X56172Y44622D01*
X56172Y44626D01*
X56175Y44628D01*
X56224Y45071D01*
X56215Y45084D01*
X56213Y45083D01*
X56212Y45084D01*
X34254Y45084D01*
X34247Y45078D01*
X34243Y45077D01*
X33153Y42445D01*
X30580Y39872D01*
X27219Y38480D01*
X23581Y38480D01*
X20220Y39872D01*
X17647Y42445D01*
X16255Y45806D01*
X16255Y49444D01*
X17647Y52805D01*
X20220Y55378D01*
X23581Y56770D01*
X27219Y56770D01*
X30580Y55378D01*
X33153Y52805D01*
X34243Y50173D01*
X34251Y50169D01*
X34254Y50166D01*
X57331Y50166D01*
X57339Y50173D01*
X57343Y50174D01*
X57463Y50602D01*
X57626Y50693D01*
X57627Y50697D01*
X57631Y50698D01*
X58230Y51970D01*
X58228Y51975D01*
X58230Y51977D01*
X58231Y51978D01*
X58207Y52067D01*
X58249Y52141D01*
X58249Y52143D01*
X58250Y52144D01*
X58248Y52147D01*
X58246Y52156D01*
X58245Y52156D01*
X58245Y52157D01*
X16585Y76210D01*
X16980Y76780D01*
X16991Y76807D01*
X17009Y76829D01*
X17030Y76897D01*
X17058Y76963D01*
X17058Y76992D01*
X17066Y77019D01*
X17059Y77090D01*
X17059Y77162D01*
X17048Y77188D01*
X17045Y77217D01*
X17010Y77279D01*
X16982Y77345D01*
X16961Y77365D01*
X16947Y77390D01*
X16870Y77455D01*
X16840Y77484D01*
X16830Y77488D01*
X16819Y77496D01*
X342Y87036D01*
X268Y87061D01*
X197Y87092D01*
X175Y87092D01*
X154Y87099D01*
X76Y87093D01*
X-2Y87094D01*
X-25Y87085D01*
X-45Y87084D01*
X-84Y87063D01*
X-158Y87036D01*
X-16612Y77536D01*
X-16633Y77517D01*
X-16659Y77505D01*
X-16707Y77452D01*
X-16761Y77404D01*
X-16773Y77379D01*
X-16792Y77358D01*
X-16816Y77290D01*
X-16847Y77225D01*
X-16848Y77197D01*
X-16857Y77170D01*
X-16853Y77098D01*
X-16856Y77026D01*
X-16846Y77000D01*
X-16844Y76971D01*
X-16801Y76879D01*
X-16786Y76840D01*
X-16779Y76832D01*
X-16774Y76821D01*
X-16367Y76230D01*
X-58042Y52168D01*
X-58044Y52162D01*
X-58048Y52159D01*
X-58046Y52157D01*
X-58047Y52154D01*
X-58046Y52153D01*
X-58047Y52152D01*
X-58011Y52090D01*
X-58034Y52001D01*
X-58032Y51996D01*
X-58034Y51993D01*
X-57433Y50719D01*
X-57428Y50717D01*
X-57428Y50713D01*
X-57265Y50623D01*
X-57083Y49978D01*
X-57082Y49977D01*
X-57082Y49976D01*
X-56796Y49370D01*
X-56859Y49195D01*
X-56857Y49191D01*
X-56859Y49188D01*
X-56450Y47742D01*
X-56446Y47739D01*
X-56446Y47736D01*
X-56301Y47619D01*
X-56227Y46953D01*
X-56226Y46952D01*
X-56227Y46951D01*
X-56045Y46307D01*
X-56136Y46144D01*
X-56135Y46143D01*
X-56135Y46142D01*
X-56135Y46140D01*
X-56137Y46137D01*
X-55972Y44643D01*
X-55968Y44640D01*
X-55969Y44637D01*
X-55844Y44498D01*
X-55881Y43829D01*
X-55880Y43828D01*
X-55881Y43827D01*
X-55808Y43161D01*
X-55924Y43016D01*
X-55924Y43011D01*
X-55927Y43009D01*
X-56009Y41509D01*
X-56007Y41505D01*
X-56008Y41502D01*
X-55908Y41344D01*
X-56054Y40691D01*
X-56054Y40689D01*
X-56055Y40689D01*
X-56092Y40020D01*
X-56230Y39896D01*
X-56231Y39891D01*
X-56234Y39889D01*
X-56235Y39883D01*
X-56235Y39882D01*
X-56233Y39880D01*
X-56228Y39870D01*
X-56225Y39871D01*
X-56224Y39869D01*
X-36754Y39869D01*
X-36750Y39873D01*
X-36746Y39872D01*
X-33671Y42947D01*
X-33671Y42951D01*
X-33669Y42952D01*
X-33671Y42954D01*
X-33670Y42963D01*
X-33671Y42963D01*
X-33671Y42964D01*
X-34545Y43837D01*
X-34545Y51413D01*
X-29188Y56770D01*
X-21612Y56770D01*
X-16255Y51413D01*
X-16255Y43837D01*
X-21612Y38480D01*
X-29188Y38480D01*
X-30061Y39354D01*
X-30077Y39355D01*
X-30077Y39354D01*
X-30078Y39354D01*
X-34644Y34787D01*
X-57871Y34787D01*
X-57876Y34783D01*
X-57881Y34782D01*
X-57924Y34711D01*
X-57924Y34710D01*
X-57925Y34709D01*
X-58177Y34089D01*
X-58349Y34016D01*
X-58351Y34012D01*
X-58354Y34012D01*
X-59141Y32731D01*
X-59140Y32727D01*
X-59143Y32725D01*
X-59143Y32724D01*
X-59130Y32538D01*
X-59570Y32033D01*
X-59570Y32032D01*
X-59571Y32032D01*
X-59922Y31461D01*
X-60103Y31418D01*
X-60106Y31414D01*
X-60109Y31414D01*
X-61096Y30281D01*
X-61096Y30278D01*
X-61096Y30276D01*
X-61099Y30274D01*
X-61117Y30089D01*
X-61634Y29663D01*
X-61635Y29662D01*
X-61636Y29662D01*
X-62076Y29156D01*
X-62261Y29143D01*
X-62265Y29140D01*
X-62268Y29141D01*
X-63428Y28185D01*
X-63429Y28181D01*
X-63432Y28179D01*
X-63480Y27999D01*
X-64061Y27664D01*
X-64061Y27663D01*
X-64062Y27663D01*
X-64579Y27237D01*
X-64765Y27255D01*
X-64768Y27253D01*
X-64772Y27254D01*
X-66073Y26502D01*
X-66075Y26498D01*
X-66078Y26497D01*
X-66155Y26328D01*
X-66783Y26093D01*
X-66783Y26091D01*
X-66784Y26092D01*
X-67365Y25757D01*
X-67544Y25805D01*
X-67549Y25803D01*
X-67552Y25805D01*
X-68959Y25278D01*
X-68961Y25274D01*
X-68965Y25273D01*
X-69069Y25119D01*
X-69726Y24990D01*
X-69727Y24989D01*
X-69728Y24990D01*
X-70356Y24755D01*
X-70525Y24832D01*
X-70528Y24831D01*
X-70529Y24833D01*
X-70532Y24833D01*
X-72007Y24545D01*
X-72010Y24541D01*
X-72014Y24541D01*
X-72142Y24406D01*
X-72256Y24403D01*
X-72689Y24391D01*
X-72811Y24388D01*
X-72812Y24387D01*
X-72813Y24387D01*
X-73471Y24259D01*
X-73625Y24363D01*
X-73630Y24362D01*
X-73632Y24365D01*
X-73988Y24355D01*
X-73989Y24355D01*
X-74421Y24343D01*
X-74853Y24331D01*
X-74854Y24331D01*
X-75134Y24324D01*
X-75138Y24320D01*
X-75141Y24321D01*
X-75290Y24209D01*
X-75953Y24301D01*
X-75954Y24300D01*
X-75955Y24301D01*
X-76152Y24296D01*
X-76153Y24296D01*
X-76153Y24295D01*
X-76586Y24284D01*
X-76625Y24282D01*
X-76760Y24411D01*
X-76765Y24411D01*
X-76767Y24414D01*
X-78255Y24620D01*
X-78259Y24618D01*
X-78260Y24618D01*
X-78262Y24619D01*
X-78427Y24532D01*
X-79067Y24732D01*
X-79068Y24732D01*
X-79069Y24733D01*
X-79732Y24825D01*
X-79845Y24973D01*
X-79849Y24974D01*
X-79851Y24978D01*
X-81285Y25426D01*
X-81289Y25424D01*
X-81292Y25426D01*
X-81469Y25368D01*
X-82067Y25671D01*
X-82068Y25670D01*
X-82069Y25671D01*
X-82708Y25871D01*
X-82794Y26036D01*
X-82799Y26038D01*
X-82799Y26041D01*
X-84140Y26720D01*
X-84145Y26719D01*
X-84148Y26721D01*
X-84332Y26693D01*
X-84871Y27090D01*
X-84873Y27090D01*
X-84873Y27091D01*
X-85471Y27393D01*
X-85529Y27570D01*
X-85533Y27572D01*
X-85533Y27576D01*
X-86744Y28466D01*
X-86749Y28466D01*
X-86751Y28468D01*
X-86937Y28471D01*
X-87404Y28951D01*
X-87406Y28951D01*
X-87406Y28952D01*
X-87945Y29349D01*
X-87974Y29533D01*
X-87977Y29536D01*
X-87977Y29540D01*
X-89025Y30617D01*
X-89029Y30617D01*
X-89031Y30620D01*
X-89214Y30654D01*
X-89596Y31204D01*
X-89597Y31204D01*
X-89597Y31206D01*
X-90065Y31686D01*
X-90062Y31872D01*
X-90065Y31875D01*
X-90064Y31879D01*
X-90867Y33037D01*
X-90872Y33038D01*
X-90873Y33041D01*
X-90962Y33065D01*
X-90998Y33127D01*
X-91013Y33133D01*
X-91014Y33132D01*
X-91015Y33132D01*
X-121595Y15476D01*
X-121888Y16074D01*
X-121904Y16093D01*
X-121912Y16117D01*
X-121964Y16171D01*
X-122010Y16231D01*
X-122032Y16243D01*
X-122049Y16262D01*
X-122117Y16292D01*
X-122183Y16329D01*
X-122208Y16332D01*
X-122231Y16342D01*
X-122306Y16343D01*
X-122381Y16351D01*
X-122405Y16344D01*
X-122430Y16344D01*
X-122535Y16305D01*
X-122571Y16295D01*
X-122577Y16290D01*
X-122586Y16287D01*
X-150153Y433D01*
X-150205Y387D01*
X-150263Y347D01*
X-150279Y321D01*
X-150302Y301D01*
X-150332Y238D01*
X-150370Y179D01*
X-150375Y149D01*
X-150388Y122D01*
X-150391Y52D01*
X-150403Y-17D01*
X-150396Y-46D01*
X-150397Y-77D01*
X-150373Y-142D01*
X-150356Y-210D01*
X-150339Y-235D01*
X-150328Y-263D01*
X-150280Y-314D01*
X-150239Y-370D01*
X-150212Y-386D01*
X-150192Y-408D01*
X-150128Y-436D01*
X-150067Y-472D01*
X-150034Y-477D01*
X-150010Y-488D01*
X-149968Y-488D01*
X-149903Y-499D01*
X-118131Y-485D01*
X-118107Y-480D01*
X-118083Y-483D01*
X-118010Y-460D01*
X-117936Y-445D01*
X-117916Y-432D01*
X-117893Y-424D01*
X-117834Y-376D01*
X-117772Y-333D01*
X-117759Y-312D01*
X-117740Y-297D01*
X-117706Y-229D01*
X-117665Y-165D01*
X-117661Y-141D01*
X-117650Y-120D01*
X-117638Y-4D01*
X-117632Y31D01*
X-117633Y38D01*
X-117633Y46D01*
X-117678Y758D01*
X118018Y755D01*
X117980Y26D01*
X117983Y5D01*
X117980Y-17D01*
X117998Y-93D01*
X118010Y-171D01*
X118021Y-189D01*
X118026Y-210D01*
X118072Y-273D01*
X118113Y-340D01*
X118131Y-353D01*
X118144Y-370D01*
X118211Y-410D01*
X118275Y-456D01*
X118296Y-461D01*
X118315Y-472D01*
X118442Y-493D01*
X118469Y-499D01*
X118474Y-498D01*
X118479Y-499D01*
X150090Y-499D01*
X150158Y-485D01*
G37*
G36*
X-73022Y25908D02*
X-73022Y25908D01*
X-72988Y25916D01*
X-72940Y25917D01*
X-70184Y26455D01*
X-70152Y26469D01*
X-70105Y26478D01*
X-67476Y27462D01*
X-67446Y27481D01*
X-67401Y27497D01*
X-64969Y28901D01*
X-64943Y28924D01*
X-64902Y28948D01*
X-62734Y30733D01*
X-62713Y30760D01*
X-62675Y30791D01*
X-60831Y32908D01*
X-60814Y32938D01*
X-60783Y32974D01*
X-59312Y35366D01*
X-59300Y35399D01*
X-59275Y35440D01*
X-58218Y38041D01*
X-58212Y38075D01*
X-58194Y38120D01*
X-57580Y40860D01*
X-57579Y40894D01*
X-57568Y40941D01*
X-57414Y43745D01*
X-57419Y43779D01*
X-57416Y43827D01*
X-57725Y46618D01*
X-57736Y46651D01*
X-57741Y46699D01*
X-58505Y49400D01*
X-58521Y49431D01*
X-58534Y49478D01*
X-59732Y52017D01*
X-59749Y52040D01*
X-59760Y52068D01*
X-59808Y52119D01*
X-59851Y52176D01*
X-59876Y52191D01*
X-59896Y52212D01*
X-59961Y52241D01*
X-60023Y52276D01*
X-60052Y52280D01*
X-60078Y52292D01*
X-60149Y52293D01*
X-60220Y52302D01*
X-60248Y52294D01*
X-60277Y52294D01*
X-60370Y52259D01*
X-60411Y52248D01*
X-60420Y52241D01*
X-60433Y52236D01*
X-89878Y35236D01*
X-89900Y35217D01*
X-89926Y35204D01*
X-89959Y35168D01*
X-89964Y35164D01*
X-89970Y35156D01*
X-89974Y35152D01*
X-90027Y35104D01*
X-90039Y35078D01*
X-90059Y35056D01*
X-90082Y34989D01*
X-90113Y34925D01*
X-90114Y34896D01*
X-90123Y34868D01*
X-90118Y34797D01*
X-90121Y34726D01*
X-90111Y34699D01*
X-90109Y34670D01*
X-90067Y34580D01*
X-90052Y34540D01*
X-90044Y34532D01*
X-90039Y34519D01*
X-88439Y32212D01*
X-88414Y32188D01*
X-88386Y32148D01*
X-86428Y30136D01*
X-86400Y30116D01*
X-86366Y30082D01*
X-84104Y28419D01*
X-84072Y28404D01*
X-84034Y28376D01*
X-81529Y27108D01*
X-81495Y27099D01*
X-81452Y27077D01*
X-78772Y26239D01*
X-78738Y26235D01*
X-78692Y26221D01*
X-75911Y25835D01*
X-75876Y25837D01*
X-75829Y25831D01*
X-73022Y25908D01*
G37*
G36*
X76058Y25855D02*
X76058Y25855D01*
X76106Y25853D01*
X78884Y26240D01*
X78917Y26252D01*
X78964Y26258D01*
X81641Y27097D01*
X81671Y27114D01*
X81717Y27128D01*
X84218Y28396D01*
X84246Y28418D01*
X84289Y28440D01*
X86547Y30102D01*
X86571Y30128D01*
X86609Y30156D01*
X86937Y30494D01*
X86938Y30494D01*
X87422Y30993D01*
X87423Y30993D01*
X87907Y31492D01*
X87908Y31492D01*
X88393Y31992D01*
X88564Y32168D01*
X88582Y32197D01*
X88616Y32231D01*
X90213Y34537D01*
X90224Y34564D01*
X90243Y34586D01*
X90263Y34654D01*
X90291Y34720D01*
X90291Y34749D01*
X90299Y34777D01*
X90291Y34848D01*
X90292Y34919D01*
X90280Y34946D01*
X90277Y34975D01*
X90242Y35037D01*
X90215Y35102D01*
X90194Y35122D01*
X90180Y35148D01*
X90118Y35199D01*
X90113Y35205D01*
X90103Y35211D01*
X90073Y35241D01*
X90062Y35245D01*
X90051Y35254D01*
X60629Y52215D01*
X60601Y52224D01*
X60577Y52241D01*
X60508Y52255D01*
X60440Y52278D01*
X60411Y52276D01*
X60383Y52282D01*
X60313Y52268D01*
X60242Y52262D01*
X60216Y52249D01*
X60188Y52243D01*
X60129Y52203D01*
X60066Y52171D01*
X60047Y52148D01*
X60023Y52132D01*
X59966Y52050D01*
X59939Y52017D01*
X59936Y52007D01*
X59928Y51995D01*
X58733Y49458D01*
X58725Y49424D01*
X58704Y49381D01*
X57943Y46682D01*
X57940Y46647D01*
X57927Y46601D01*
X57620Y43813D01*
X57623Y43779D01*
X57618Y43731D01*
X57774Y40931D01*
X57783Y40897D01*
X57786Y40849D01*
X58401Y38113D01*
X58415Y38081D01*
X58425Y38034D01*
X59482Y35436D01*
X59502Y35407D01*
X59520Y35363D01*
X60990Y32975D01*
X61014Y32949D01*
X61039Y32908D01*
X62882Y30795D01*
X62910Y30773D01*
X62941Y30737D01*
X65107Y28956D01*
X65138Y28939D01*
X65175Y28909D01*
X67605Y27508D01*
X67638Y27497D01*
X67679Y27473D01*
X70306Y26491D01*
X70341Y26486D01*
X70386Y26469D01*
X73139Y25933D01*
X73173Y25933D01*
X73221Y25924D01*
X76024Y25849D01*
X76058Y25855D01*
G37*
%LPC*%
G36*
X-29188Y13080D02*
X-29188Y13080D01*
X-34545Y18437D01*
X-34545Y26013D01*
X-29188Y31370D01*
X-21612Y31370D01*
X-16255Y26013D01*
X-16255Y18437D01*
X-21612Y13080D01*
X-29188Y13080D01*
G37*
%LPD*%
%LPC*%
G36*
X21612Y13080D02*
X21612Y13080D01*
X16255Y18437D01*
X16255Y26013D01*
X21612Y31370D01*
X29188Y31370D01*
X34545Y26013D01*
X34545Y18437D01*
X29188Y13080D01*
X21612Y13080D01*
G37*
%LPD*%
%LPC*%
G36*
X-3788Y38480D02*
X-3788Y38480D01*
X-9145Y43837D01*
X-9145Y51413D01*
X-3788Y56770D01*
X3788Y56770D01*
X9145Y51413D01*
X9145Y43837D01*
X3788Y38480D01*
X-3788Y38480D01*
G37*
%LPD*%
D10*
X78Y78628D03*
D11*
X133160Y4005D03*
X-134608Y4156D03*
D10*
X71645Y37271D03*
X-71456Y37328D03*
D12*
X25400Y47625D03*
D13*
X0Y47625D03*
X-25400Y47625D03*
X25400Y22225D03*
X0Y22225D03*
X-25400Y22225D03*
D14*
X-35697Y37328D02*
X-71456Y37328D01*
X-35697Y37328D02*
X-25400Y47625D01*
X25400Y47625D02*
X61290Y47625D01*
X71645Y37271D01*
M02*
