G04 EAGLE Gerber RS-274X export*
G75*
%MOMM*%
%FSLAX34Y34*%
%LPD*%
%INTop Copper*%
%IPPOS*%
%AMOC8*
5,1,8,0,0,1.08239X$1,22.5*%
G01*
%ADD10C,1.000000*%
%ADD11C,0.609600*%
%ADD12C,1.524000*%
%ADD13P,1.649562X8X202.500000*%
%ADD14C,0.203200*%

G36*
X150158Y-485D02*
X150158Y-485D01*
X150227Y-480D01*
X150255Y-466D01*
X150285Y-460D01*
X150342Y-420D01*
X150404Y-388D01*
X150423Y-364D01*
X150449Y-347D01*
X150486Y-288D01*
X150530Y-235D01*
X150539Y-205D01*
X150556Y-180D01*
X150567Y-111D01*
X150587Y-44D01*
X150584Y-14D01*
X150589Y17D01*
X150573Y84D01*
X150565Y154D01*
X150550Y180D01*
X150543Y210D01*
X150501Y266D01*
X150467Y327D01*
X150440Y349D01*
X150425Y370D01*
X150389Y391D01*
X150339Y433D01*
X122749Y16322D01*
X122723Y16331D01*
X122700Y16347D01*
X122629Y16362D01*
X122561Y16385D01*
X122533Y16383D01*
X122505Y16389D01*
X122434Y16375D01*
X122362Y16369D01*
X122337Y16356D01*
X122310Y16351D01*
X122250Y16311D01*
X122186Y16277D01*
X122168Y16256D01*
X122145Y16240D01*
X122086Y16156D01*
X122059Y16124D01*
X122056Y16114D01*
X122049Y16104D01*
X121756Y15488D01*
X100343Y27850D01*
X100328Y27847D01*
X100328Y27846D01*
X100327Y27846D01*
X100319Y27832D01*
X100239Y27811D01*
X100236Y27807D01*
X100232Y27806D01*
X98760Y25649D01*
X98760Y25646D01*
X98761Y25645D01*
X98761Y25644D01*
X98758Y25641D01*
X98764Y25473D01*
X98297Y24970D01*
X98297Y24969D01*
X98296Y24969D01*
X97910Y24402D01*
X97744Y24371D01*
X97741Y24367D01*
X97738Y24367D01*
X95902Y22391D01*
X95902Y22387D01*
X95902Y22386D01*
X95899Y22384D01*
X95880Y22216D01*
X95344Y21789D01*
X95344Y21788D01*
X95342Y21788D01*
X94876Y21285D01*
X94707Y21279D01*
X94704Y21276D01*
X94700Y21276D01*
X92591Y19595D01*
X92590Y19590D01*
X92587Y19589D01*
X92543Y19426D01*
X91949Y19083D01*
X91949Y19082D01*
X91948Y19082D01*
X91411Y18655D01*
X91244Y18674D01*
X91243Y18673D01*
X91241Y18673D01*
X91239Y18671D01*
X91236Y18672D01*
X88900Y17324D01*
X88898Y17320D01*
X88895Y17319D01*
X88828Y17164D01*
X88189Y16914D01*
X88188Y16913D01*
X88187Y16913D01*
X87593Y16570D01*
X87430Y16614D01*
X87426Y16612D01*
X87423Y16613D01*
X84912Y15629D01*
X84910Y15625D01*
X84906Y15624D01*
X84816Y15481D01*
X84147Y15329D01*
X84147Y15328D01*
X84146Y15328D01*
X83507Y15078D01*
X83353Y15145D01*
X83348Y15144D01*
X83345Y15146D01*
X80715Y14547D01*
X80713Y14543D01*
X80709Y14543D01*
X80599Y14415D01*
X79915Y14364D01*
X79914Y14364D01*
X79913Y14364D01*
X79244Y14211D01*
X79102Y14301D01*
X79097Y14300D01*
X79094Y14303D01*
X76404Y14102D01*
X76401Y14099D01*
X76398Y14099D01*
X76270Y13990D01*
X75586Y14041D01*
X75585Y14040D01*
X75584Y14041D01*
X74900Y13990D01*
X74772Y14100D01*
X74767Y14100D01*
X74765Y14103D01*
X72076Y14305D01*
X72074Y14304D01*
X72072Y14304D01*
X72071Y14303D01*
X72068Y14303D01*
X71926Y14214D01*
X71257Y14367D01*
X71256Y14366D01*
X71255Y14367D01*
X70571Y14418D01*
X70461Y14546D01*
X70456Y14547D01*
X70455Y14550D01*
X67825Y15151D01*
X67821Y15149D01*
X67818Y15150D01*
X67663Y15083D01*
X67025Y15334D01*
X67024Y15333D01*
X67023Y15334D01*
X66354Y15487D01*
X66265Y15630D01*
X66260Y15631D01*
X66259Y15635D01*
X63748Y16621D01*
X63745Y16620D01*
X63743Y16620D01*
X63741Y16621D01*
X63578Y16578D01*
X62984Y16921D01*
X62983Y16921D01*
X62983Y16922D01*
X62344Y17173D01*
X62277Y17327D01*
X62272Y17329D01*
X62272Y17333D01*
X59936Y18682D01*
X59932Y18681D01*
X59929Y18684D01*
X59762Y18665D01*
X59225Y19093D01*
X59224Y19093D01*
X59224Y19094D01*
X58630Y19437D01*
X58586Y19600D01*
X58582Y19602D01*
X58582Y19606D01*
X56474Y21288D01*
X56469Y21288D01*
X56467Y21291D01*
X56298Y21297D01*
X55832Y21800D01*
X55831Y21801D01*
X55831Y21802D01*
X55295Y22229D01*
X55276Y22397D01*
X55272Y22400D01*
X55273Y22404D01*
X53439Y24382D01*
X53434Y24382D01*
X53432Y24385D01*
X53266Y24417D01*
X52880Y24983D01*
X52879Y24984D01*
X52879Y24985D01*
X52413Y25488D01*
X52419Y25656D01*
X52416Y25660D01*
X52417Y25663D01*
X50898Y27893D01*
X50894Y27894D01*
X50892Y27897D01*
X50733Y27953D01*
X50436Y28571D01*
X50435Y28572D01*
X50435Y28573D01*
X50049Y29139D01*
X50080Y29305D01*
X50079Y29307D01*
X50079Y29308D01*
X50078Y29309D01*
X50079Y29312D01*
X48910Y31743D01*
X48905Y31745D01*
X48904Y31748D01*
X48755Y31827D01*
X48553Y32483D01*
X48552Y32483D01*
X48553Y32484D01*
X48255Y33103D01*
X48311Y33262D01*
X48309Y33266D01*
X48311Y33269D01*
X47517Y35847D01*
X47513Y35849D01*
X47513Y35853D01*
X47377Y35953D01*
X47275Y36631D01*
X47274Y36632D01*
X47275Y36633D01*
X47073Y37289D01*
X47151Y37438D01*
X47150Y37442D01*
X47153Y37445D01*
X46752Y40112D01*
X46748Y40115D01*
X46748Y40119D01*
X46629Y40238D01*
X46629Y40924D01*
X46628Y40925D01*
X46629Y40926D01*
X46527Y41604D01*
X46627Y41740D01*
X46627Y41744D01*
X46629Y41747D01*
X46630Y41747D01*
X46630Y44444D01*
X46627Y44448D01*
X46628Y44451D01*
X46528Y44587D01*
X46532Y44612D01*
X46544Y44695D01*
X46562Y44815D01*
X46575Y44898D01*
X46588Y44982D01*
X46593Y45017D01*
X46601Y45071D01*
X46600Y45072D01*
X46593Y45084D01*
X46591Y45083D01*
X46589Y45084D01*
X34254Y45084D01*
X34247Y45078D01*
X34243Y45077D01*
X33153Y42445D01*
X30580Y39872D01*
X27219Y38480D01*
X23581Y38480D01*
X20220Y39872D01*
X17647Y42445D01*
X16255Y45806D01*
X16255Y49444D01*
X17647Y52805D01*
X20220Y55378D01*
X23581Y56770D01*
X27219Y56770D01*
X30580Y55378D01*
X33153Y52805D01*
X34243Y50173D01*
X34251Y50169D01*
X34254Y50166D01*
X47360Y50166D01*
X47371Y50175D01*
X47372Y50176D01*
X47376Y50198D01*
X47382Y50238D01*
X47517Y50338D01*
X47518Y50343D01*
X47522Y50344D01*
X48317Y52921D01*
X48316Y52926D01*
X48317Y52929D01*
X48262Y53088D01*
X48560Y53706D01*
X48559Y53707D01*
X48560Y53707D01*
X48763Y54363D01*
X48912Y54442D01*
X48913Y54446D01*
X48917Y54447D01*
X50051Y56800D01*
X50049Y56805D01*
X50052Y56808D01*
X50029Y56893D01*
X50028Y56894D01*
X50026Y56902D01*
X50025Y56902D01*
X50025Y56903D01*
X16585Y76210D01*
X16980Y76780D01*
X16991Y76807D01*
X17009Y76829D01*
X17030Y76897D01*
X17058Y76963D01*
X17058Y76992D01*
X17066Y77019D01*
X17059Y77090D01*
X17059Y77162D01*
X17048Y77188D01*
X17045Y77217D01*
X17010Y77279D01*
X16982Y77345D01*
X16961Y77365D01*
X16947Y77390D01*
X16870Y77455D01*
X16840Y77484D01*
X16830Y77488D01*
X16819Y77496D01*
X342Y87036D01*
X268Y87061D01*
X197Y87092D01*
X175Y87092D01*
X154Y87099D01*
X76Y87093D01*
X-2Y87094D01*
X-25Y87085D01*
X-45Y87084D01*
X-84Y87063D01*
X-158Y87036D01*
X-16612Y77536D01*
X-16633Y77517D01*
X-16659Y77505D01*
X-16707Y77452D01*
X-16761Y77404D01*
X-16773Y77379D01*
X-16792Y77358D01*
X-16816Y77290D01*
X-16847Y77225D01*
X-16848Y77197D01*
X-16857Y77170D01*
X-16853Y77098D01*
X-16856Y77026D01*
X-16846Y77000D01*
X-16844Y76971D01*
X-16801Y76879D01*
X-16786Y76840D01*
X-16779Y76832D01*
X-16774Y76821D01*
X-16367Y76230D01*
X-49257Y57241D01*
X-49259Y57235D01*
X-49262Y57233D01*
X-49260Y57231D01*
X-49262Y57226D01*
X-49261Y57225D01*
X-49261Y57224D01*
X-49086Y56919D01*
X-49107Y56839D01*
X-49106Y56837D01*
X-49105Y56835D01*
X-49106Y56831D01*
X-47974Y54478D01*
X-47969Y54476D01*
X-47969Y54472D01*
X-47820Y54393D01*
X-47618Y53738D01*
X-47617Y53737D01*
X-47617Y53736D01*
X-47320Y53118D01*
X-47375Y52959D01*
X-47374Y52955D01*
X-47375Y52951D01*
X-46581Y50374D01*
X-46577Y50371D01*
X-46577Y50368D01*
X-46441Y50268D01*
X-46339Y49589D01*
X-46338Y49588D01*
X-46339Y49587D01*
X-46137Y48932D01*
X-46216Y48783D01*
X-46215Y48781D01*
X-46216Y48781D01*
X-46215Y48780D01*
X-46215Y48778D01*
X-46217Y48775D01*
X-45816Y46108D01*
X-45812Y46105D01*
X-45812Y46102D01*
X-45693Y45982D01*
X-45694Y45296D01*
X-45693Y45295D01*
X-45693Y45294D01*
X-45591Y44616D01*
X-45692Y44481D01*
X-45691Y44476D01*
X-45694Y44473D01*
X-45695Y41776D01*
X-45692Y41773D01*
X-45692Y41769D01*
X-45592Y41634D01*
X-45600Y41583D01*
X-45600Y41582D01*
X-45618Y41463D01*
X-45636Y41344D01*
X-45649Y41260D01*
X-45654Y41224D01*
X-45667Y41141D01*
X-45685Y41021D01*
X-45695Y40955D01*
X-45694Y40954D01*
X-45695Y40953D01*
X-45695Y40267D01*
X-45814Y40148D01*
X-45815Y40144D01*
X-45818Y40142D01*
X-45857Y39883D01*
X-45857Y39882D01*
X-45856Y39881D01*
X-45848Y39869D01*
X-45846Y39871D01*
X-45845Y39869D01*
X-36754Y39869D01*
X-36750Y39873D01*
X-36746Y39872D01*
X-33671Y42947D01*
X-33671Y42951D01*
X-33669Y42952D01*
X-33671Y42954D01*
X-33670Y42963D01*
X-33671Y42963D01*
X-33671Y42964D01*
X-34545Y43837D01*
X-34545Y51413D01*
X-29188Y56770D01*
X-21612Y56770D01*
X-16255Y51413D01*
X-16255Y43837D01*
X-21612Y38480D01*
X-29188Y38480D01*
X-30061Y39354D01*
X-30077Y39355D01*
X-30077Y39354D01*
X-30078Y39354D01*
X-34644Y34787D01*
X-46913Y34787D01*
X-46921Y34781D01*
X-46925Y34779D01*
X-47382Y33299D01*
X-47381Y33298D01*
X-47382Y33298D01*
X-47380Y33296D01*
X-47380Y33295D01*
X-47382Y33292D01*
X-47326Y33133D01*
X-47624Y32515D01*
X-47624Y32514D01*
X-47625Y32513D01*
X-47827Y31858D01*
X-47976Y31779D01*
X-47978Y31775D01*
X-47981Y31774D01*
X-49152Y29344D01*
X-49151Y29339D01*
X-49153Y29336D01*
X-49122Y29171D01*
X-49509Y28604D01*
X-49508Y28603D01*
X-49509Y28603D01*
X-49807Y27985D01*
X-49966Y27929D01*
X-49969Y27925D01*
X-49972Y27924D01*
X-51492Y25696D01*
X-51492Y25694D01*
X-51493Y25694D01*
X-51492Y25693D01*
X-51492Y25692D01*
X-51494Y25689D01*
X-51488Y25521D01*
X-51955Y25018D01*
X-51955Y25017D01*
X-51956Y25017D01*
X-52343Y24450D01*
X-52508Y24419D01*
X-52511Y24415D01*
X-52515Y24415D01*
X-54350Y22438D01*
X-54350Y22435D01*
X-54350Y22434D01*
X-54353Y22432D01*
X-54361Y22363D01*
X-54370Y22280D01*
X-54372Y22264D01*
X-54909Y21836D01*
X-54909Y21835D01*
X-54910Y21835D01*
X-55377Y21333D01*
X-55545Y21326D01*
X-55548Y21323D01*
X-55552Y21324D01*
X-57661Y19643D01*
X-57662Y19638D01*
X-57666Y19636D01*
X-57709Y19474D01*
X-58304Y19131D01*
X-58304Y19130D01*
X-58305Y19130D01*
X-58841Y18702D01*
X-59009Y18721D01*
X-59010Y18721D01*
X-59011Y18721D01*
X-59013Y18719D01*
X-59016Y18720D01*
X-61353Y17372D01*
X-61354Y17367D01*
X-61358Y17366D01*
X-61425Y17212D01*
X-62064Y16961D01*
X-62064Y16960D01*
X-62065Y16961D01*
X-62660Y16618D01*
X-62822Y16661D01*
X-62826Y16659D01*
X-62830Y16661D01*
X-65341Y15676D01*
X-65343Y15672D01*
X-65347Y15672D01*
X-65436Y15529D01*
X-66105Y15377D01*
X-66106Y15376D01*
X-66107Y15376D01*
X-66746Y15126D01*
X-66900Y15193D01*
X-66904Y15192D01*
X-66907Y15194D01*
X-69537Y14594D01*
X-69540Y14591D01*
X-69544Y14591D01*
X-69654Y14463D01*
X-70338Y14412D01*
X-70338Y14411D01*
X-70339Y14411D01*
X-70340Y14412D01*
X-71008Y14259D01*
X-71151Y14349D01*
X-71156Y14348D01*
X-71158Y14351D01*
X-73848Y14150D01*
X-73851Y14147D01*
X-73855Y14147D01*
X-73983Y14037D01*
X-74667Y14089D01*
X-74668Y14088D01*
X-74669Y14089D01*
X-75353Y14038D01*
X-75480Y14148D01*
X-75485Y14148D01*
X-75487Y14150D01*
X-78177Y14353D01*
X-78179Y14352D01*
X-78180Y14352D01*
X-78182Y14350D01*
X-78184Y14351D01*
X-78327Y14261D01*
X-78996Y14414D01*
X-78997Y14414D01*
X-78998Y14415D01*
X-79682Y14466D01*
X-79791Y14594D01*
X-79796Y14594D01*
X-79798Y14598D01*
X-82427Y15199D01*
X-82432Y15196D01*
X-82435Y15198D01*
X-82589Y15131D01*
X-83228Y15382D01*
X-83229Y15381D01*
X-83230Y15382D01*
X-83898Y15535D01*
X-83988Y15678D01*
X-83992Y15679D01*
X-83994Y15682D01*
X-86504Y16669D01*
X-86507Y16667D01*
X-86509Y16667D01*
X-86512Y16669D01*
X-86674Y16626D01*
X-87268Y16969D01*
X-87270Y16969D01*
X-87270Y16970D01*
X-87908Y17220D01*
X-87976Y17375D01*
X-87980Y17377D01*
X-87981Y17380D01*
X-90316Y18730D01*
X-90321Y18729D01*
X-90324Y18731D01*
X-90491Y18712D01*
X-91027Y19140D01*
X-91029Y19140D01*
X-91029Y19141D01*
X-91623Y19485D01*
X-91666Y19647D01*
X-91670Y19650D01*
X-91670Y19654D01*
X-93779Y21336D01*
X-93783Y21336D01*
X-93786Y21339D01*
X-93954Y21345D01*
X-94421Y21848D01*
X-94422Y21848D01*
X-94422Y21849D01*
X-94958Y22277D01*
X-94977Y22445D01*
X-94980Y22448D01*
X-94980Y22451D01*
X-96814Y24429D01*
X-96819Y24430D01*
X-96821Y24433D01*
X-96986Y24464D01*
X-97372Y25031D01*
X-97374Y25031D01*
X-97373Y25033D01*
X-97840Y25536D01*
X-97834Y25704D01*
X-97837Y25708D01*
X-97836Y25711D01*
X-99306Y27870D01*
X-99311Y27871D01*
X-99313Y27874D01*
X-99393Y27896D01*
X-99560Y28185D01*
X-99575Y28190D01*
X-99575Y28189D01*
X-99576Y28189D01*
X-121595Y15476D01*
X-121888Y16074D01*
X-121904Y16093D01*
X-121912Y16117D01*
X-121964Y16171D01*
X-122010Y16231D01*
X-122032Y16243D01*
X-122049Y16262D01*
X-122117Y16292D01*
X-122183Y16329D01*
X-122208Y16332D01*
X-122231Y16342D01*
X-122306Y16343D01*
X-122381Y16351D01*
X-122405Y16344D01*
X-122430Y16344D01*
X-122535Y16305D01*
X-122571Y16295D01*
X-122577Y16290D01*
X-122586Y16287D01*
X-150153Y433D01*
X-150205Y387D01*
X-150263Y347D01*
X-150279Y321D01*
X-150302Y301D01*
X-150332Y238D01*
X-150370Y179D01*
X-150375Y149D01*
X-150388Y122D01*
X-150391Y52D01*
X-150403Y-17D01*
X-150396Y-46D01*
X-150397Y-77D01*
X-150373Y-142D01*
X-150356Y-210D01*
X-150339Y-235D01*
X-150328Y-263D01*
X-150280Y-314D01*
X-150239Y-370D01*
X-150212Y-386D01*
X-150192Y-408D01*
X-150128Y-436D01*
X-150067Y-472D01*
X-150034Y-477D01*
X-150010Y-488D01*
X-149968Y-488D01*
X-149903Y-499D01*
X-118131Y-485D01*
X-118107Y-480D01*
X-118083Y-483D01*
X-118010Y-460D01*
X-117936Y-445D01*
X-117916Y-432D01*
X-117893Y-424D01*
X-117834Y-376D01*
X-117772Y-333D01*
X-117759Y-312D01*
X-117740Y-297D01*
X-117706Y-229D01*
X-117665Y-165D01*
X-117661Y-141D01*
X-117650Y-120D01*
X-117638Y-4D01*
X-117632Y31D01*
X-117633Y38D01*
X-117633Y46D01*
X-117678Y758D01*
X118018Y755D01*
X117980Y26D01*
X117983Y5D01*
X117980Y-17D01*
X117998Y-93D01*
X118010Y-171D01*
X118021Y-189D01*
X118026Y-210D01*
X118072Y-273D01*
X118113Y-340D01*
X118131Y-353D01*
X118144Y-370D01*
X118211Y-410D01*
X118275Y-456D01*
X118296Y-461D01*
X118315Y-472D01*
X118442Y-493D01*
X118469Y-499D01*
X118474Y-498D01*
X118479Y-499D01*
X150090Y-499D01*
X150158Y-485D01*
G37*
G36*
X-70603Y15922D02*
X-70603Y15922D01*
X-70573Y15930D01*
X-70530Y15933D01*
X-66593Y16830D01*
X-66564Y16843D01*
X-66522Y16852D01*
X-62763Y18326D01*
X-62736Y18343D01*
X-62695Y18358D01*
X-59198Y20376D01*
X-59174Y20397D01*
X-59136Y20418D01*
X-55979Y22934D01*
X-55958Y22959D01*
X-55924Y22985D01*
X-53177Y25944D01*
X-53160Y25971D01*
X-53130Y26002D01*
X-50855Y29338D01*
X-50842Y29367D01*
X-50817Y29402D01*
X-49064Y33040D01*
X-49056Y33071D01*
X-49037Y33109D01*
X-47846Y36967D01*
X-47843Y36999D01*
X-47829Y37040D01*
X-47226Y41032D01*
X-47228Y41064D01*
X-47220Y41107D01*
X-47219Y45144D01*
X-47225Y45175D01*
X-47225Y45219D01*
X-47825Y49211D01*
X-47836Y49241D01*
X-47842Y49284D01*
X-49031Y53143D01*
X-49046Y53171D01*
X-49058Y53212D01*
X-50809Y56851D01*
X-50825Y56872D01*
X-50835Y56898D01*
X-50885Y56951D01*
X-50929Y57009D01*
X-50952Y57023D01*
X-50971Y57042D01*
X-51038Y57072D01*
X-51101Y57108D01*
X-51128Y57111D01*
X-51153Y57122D01*
X-51226Y57123D01*
X-51299Y57132D01*
X-51325Y57124D01*
X-51352Y57125D01*
X-51451Y57088D01*
X-51490Y57077D01*
X-51497Y57071D01*
X-51508Y57067D01*
X-98308Y30067D01*
X-98328Y30049D01*
X-98353Y30037D01*
X-98402Y29983D01*
X-98457Y29935D01*
X-98469Y29910D01*
X-98487Y29890D01*
X-98511Y29821D01*
X-98543Y29756D01*
X-98544Y29728D01*
X-98553Y29703D01*
X-98548Y29630D01*
X-98552Y29557D01*
X-98542Y29531D01*
X-98540Y29504D01*
X-98497Y29409D01*
X-98482Y29370D01*
X-98476Y29364D01*
X-98471Y29353D01*
X-96198Y26016D01*
X-96175Y25994D01*
X-96151Y25958D01*
X-93406Y22997D01*
X-93380Y22979D01*
X-93351Y22946D01*
X-90195Y20428D01*
X-90167Y20413D01*
X-90133Y20386D01*
X-86637Y18366D01*
X-86607Y18356D01*
X-86570Y18334D01*
X-82812Y16857D01*
X-82781Y16852D01*
X-82741Y16835D01*
X-78805Y15935D01*
X-78773Y15935D01*
X-78731Y15924D01*
X-74705Y15621D01*
X-74673Y15625D01*
X-74630Y15621D01*
X-70603Y15922D01*
G37*
G36*
X79649Y15874D02*
X79649Y15874D01*
X79680Y15883D01*
X79723Y15885D01*
X83660Y16782D01*
X83689Y16795D01*
X83731Y16804D01*
X87490Y18278D01*
X87517Y18296D01*
X87557Y18311D01*
X91055Y20328D01*
X91078Y20349D01*
X91116Y20370D01*
X94274Y22887D01*
X94294Y22911D01*
X94329Y22938D01*
X97076Y25896D01*
X97092Y25924D01*
X97122Y25955D01*
X99398Y29290D01*
X99408Y29315D01*
X99426Y29336D01*
X99435Y29369D01*
X99437Y29372D01*
X99439Y29380D01*
X99447Y29406D01*
X99475Y29473D01*
X99475Y29501D01*
X99483Y29527D01*
X99475Y29599D01*
X99474Y29672D01*
X99464Y29697D01*
X99461Y29724D01*
X99425Y29788D01*
X99396Y29855D01*
X99377Y29874D01*
X99363Y29898D01*
X99282Y29965D01*
X99253Y29993D01*
X99244Y29996D01*
X99235Y30004D01*
X52453Y57034D01*
X52427Y57042D01*
X52405Y57058D01*
X52333Y57074D01*
X52264Y57097D01*
X52237Y57095D01*
X52210Y57101D01*
X52139Y57087D01*
X52066Y57082D01*
X52042Y57069D01*
X52015Y57064D01*
X51954Y57024D01*
X51889Y56990D01*
X51872Y56969D01*
X51849Y56954D01*
X51788Y56868D01*
X51762Y56837D01*
X51760Y56828D01*
X51753Y56818D01*
X50000Y53181D01*
X49992Y53150D01*
X49973Y53112D01*
X48781Y49254D01*
X48778Y49222D01*
X48765Y49181D01*
X48162Y45188D01*
X48163Y45157D01*
X48156Y45114D01*
X48155Y41076D01*
X48161Y41045D01*
X48160Y41002D01*
X48761Y37009D01*
X48772Y36979D01*
X48777Y36936D01*
X49966Y33078D01*
X49982Y33050D01*
X49994Y33008D01*
X51744Y29370D01*
X51764Y29345D01*
X51782Y29305D01*
X54055Y25969D01*
X54078Y25946D01*
X54101Y25910D01*
X56847Y22949D01*
X56873Y22931D01*
X56902Y22899D01*
X60058Y20380D01*
X60086Y20366D01*
X60119Y20338D01*
X63615Y18318D01*
X63645Y18308D01*
X63682Y18286D01*
X67441Y16810D01*
X67472Y16804D01*
X67512Y16788D01*
X71448Y15888D01*
X71480Y15887D01*
X71522Y15877D01*
X75548Y15574D01*
X75580Y15578D01*
X75623Y15574D01*
X79649Y15874D01*
G37*
%LPC*%
G36*
X-29188Y13080D02*
X-29188Y13080D01*
X-34545Y18437D01*
X-34545Y26013D01*
X-29188Y31370D01*
X-21612Y31370D01*
X-16255Y26013D01*
X-16255Y18437D01*
X-21612Y13080D01*
X-29188Y13080D01*
G37*
%LPD*%
%LPC*%
G36*
X21612Y13080D02*
X21612Y13080D01*
X16255Y18437D01*
X16255Y26013D01*
X21612Y31370D01*
X29188Y31370D01*
X34545Y26013D01*
X34545Y18437D01*
X29188Y13080D01*
X21612Y13080D01*
G37*
%LPD*%
%LPC*%
G36*
X-3788Y38480D02*
X-3788Y38480D01*
X-9145Y43837D01*
X-9145Y51413D01*
X-3788Y56770D01*
X3788Y56770D01*
X9145Y51413D01*
X9145Y43837D01*
X3788Y38480D01*
X-3788Y38480D01*
G37*
%LPD*%
D10*
X78Y78628D03*
D11*
X133160Y4005D03*
X-134608Y4156D03*
D10*
X71645Y37271D03*
X-71456Y37328D03*
D12*
X25400Y47625D03*
D13*
X0Y47625D03*
X-25400Y47625D03*
X25400Y22225D03*
X0Y22225D03*
X-25400Y22225D03*
D14*
X-35697Y37328D02*
X-71456Y37328D01*
X-35697Y37328D02*
X-25400Y47625D01*
X25400Y47625D02*
X61290Y47625D01*
X71645Y37271D01*
M02*
