G04 EAGLE Gerber RS-274X export*
G75*
%MOMM*%
%FSLAX34Y34*%
%LPD*%
%INSilkscreen Bottom*%
%IPPOS*%
%AMOC8*
5,1,8,0,0,1.08239X$1,22.5*%
G01*
%ADD10C,0.076200*%
%ADD11C,0.101600*%


D10*
X111897Y8460D02*
X110331Y8460D01*
X110331Y3239D01*
X113463Y3239D01*
X113552Y3241D01*
X113640Y3247D01*
X113728Y3256D01*
X113816Y3269D01*
X113903Y3286D01*
X113989Y3306D01*
X114074Y3331D01*
X114159Y3358D01*
X114242Y3390D01*
X114323Y3424D01*
X114403Y3463D01*
X114481Y3504D01*
X114558Y3549D01*
X114632Y3597D01*
X114705Y3648D01*
X114775Y3702D01*
X114842Y3760D01*
X114908Y3820D01*
X114970Y3882D01*
X115030Y3948D01*
X115088Y4015D01*
X115142Y4085D01*
X115193Y4158D01*
X115241Y4232D01*
X115286Y4309D01*
X115327Y4387D01*
X115366Y4467D01*
X115400Y4548D01*
X115432Y4631D01*
X115459Y4716D01*
X115484Y4801D01*
X115504Y4887D01*
X115521Y4974D01*
X115534Y5062D01*
X115543Y5150D01*
X115549Y5238D01*
X115551Y5327D01*
X115552Y5327D02*
X115552Y10548D01*
X115551Y10548D02*
X115549Y10637D01*
X115543Y10725D01*
X115534Y10813D01*
X115521Y10901D01*
X115504Y10988D01*
X115484Y11074D01*
X115459Y11159D01*
X115432Y11244D01*
X115400Y11327D01*
X115366Y11408D01*
X115327Y11488D01*
X115286Y11566D01*
X115241Y11643D01*
X115193Y11717D01*
X115142Y11790D01*
X115088Y11860D01*
X115030Y11927D01*
X114970Y11993D01*
X114908Y12055D01*
X114842Y12115D01*
X114775Y12173D01*
X114705Y12227D01*
X114632Y12278D01*
X114558Y12326D01*
X114481Y12371D01*
X114403Y12412D01*
X114323Y12451D01*
X114242Y12485D01*
X114159Y12517D01*
X114074Y12544D01*
X113989Y12569D01*
X113903Y12589D01*
X113816Y12606D01*
X113728Y12619D01*
X113640Y12628D01*
X113552Y12634D01*
X113463Y12636D01*
X113463Y12637D02*
X110331Y12637D01*
X105798Y12637D02*
X105798Y3239D01*
X100577Y3239D02*
X105798Y12637D01*
X100577Y12637D02*
X100577Y3239D01*
X96044Y3239D02*
X96044Y12637D01*
X93434Y12637D01*
X93334Y12635D01*
X93234Y12629D01*
X93135Y12620D01*
X93035Y12606D01*
X92937Y12589D01*
X92839Y12568D01*
X92742Y12544D01*
X92646Y12515D01*
X92551Y12483D01*
X92458Y12448D01*
X92366Y12409D01*
X92275Y12366D01*
X92187Y12320D01*
X92100Y12270D01*
X92015Y12218D01*
X91932Y12162D01*
X91851Y12103D01*
X91773Y12040D01*
X91697Y11975D01*
X91623Y11907D01*
X91553Y11837D01*
X91485Y11763D01*
X91420Y11687D01*
X91357Y11609D01*
X91298Y11528D01*
X91242Y11445D01*
X91190Y11360D01*
X91140Y11273D01*
X91094Y11185D01*
X91051Y11094D01*
X91012Y11002D01*
X90977Y10909D01*
X90945Y10814D01*
X90916Y10718D01*
X90892Y10621D01*
X90871Y10523D01*
X90854Y10425D01*
X90840Y10325D01*
X90831Y10226D01*
X90825Y10126D01*
X90823Y10026D01*
X90823Y5849D01*
X90825Y5749D01*
X90831Y5649D01*
X90840Y5550D01*
X90854Y5450D01*
X90871Y5352D01*
X90892Y5254D01*
X90916Y5157D01*
X90945Y5061D01*
X90977Y4966D01*
X91012Y4873D01*
X91051Y4781D01*
X91094Y4690D01*
X91140Y4602D01*
X91190Y4515D01*
X91242Y4430D01*
X91298Y4347D01*
X91357Y4266D01*
X91420Y4188D01*
X91485Y4112D01*
X91553Y4038D01*
X91623Y3968D01*
X91697Y3900D01*
X91773Y3835D01*
X91851Y3772D01*
X91932Y3713D01*
X92015Y3657D01*
X92100Y3605D01*
X92187Y3555D01*
X92275Y3509D01*
X92366Y3466D01*
X92458Y3427D01*
X92551Y3392D01*
X92646Y3360D01*
X92742Y3331D01*
X92839Y3307D01*
X92937Y3286D01*
X93035Y3269D01*
X93135Y3255D01*
X93234Y3246D01*
X93334Y3240D01*
X93434Y3238D01*
X93434Y3239D02*
X96044Y3239D01*
X-94478Y8460D02*
X-96044Y8460D01*
X-96044Y3239D01*
X-92912Y3239D01*
X-92823Y3241D01*
X-92735Y3247D01*
X-92647Y3256D01*
X-92559Y3269D01*
X-92472Y3286D01*
X-92386Y3306D01*
X-92301Y3331D01*
X-92216Y3358D01*
X-92133Y3390D01*
X-92052Y3424D01*
X-91972Y3463D01*
X-91894Y3504D01*
X-91817Y3549D01*
X-91743Y3597D01*
X-91670Y3648D01*
X-91600Y3702D01*
X-91533Y3760D01*
X-91467Y3820D01*
X-91405Y3882D01*
X-91345Y3948D01*
X-91287Y4015D01*
X-91233Y4085D01*
X-91182Y4158D01*
X-91134Y4232D01*
X-91089Y4309D01*
X-91048Y4387D01*
X-91009Y4467D01*
X-90975Y4548D01*
X-90943Y4631D01*
X-90916Y4716D01*
X-90891Y4801D01*
X-90871Y4887D01*
X-90854Y4974D01*
X-90841Y5062D01*
X-90832Y5150D01*
X-90826Y5238D01*
X-90824Y5327D01*
X-90823Y5327D02*
X-90823Y10548D01*
X-90824Y10548D02*
X-90826Y10639D01*
X-90832Y10730D01*
X-90842Y10821D01*
X-90856Y10911D01*
X-90873Y11000D01*
X-90895Y11088D01*
X-90921Y11176D01*
X-90950Y11262D01*
X-90983Y11347D01*
X-91020Y11430D01*
X-91060Y11512D01*
X-91104Y11592D01*
X-91151Y11670D01*
X-91202Y11746D01*
X-91255Y11819D01*
X-91312Y11890D01*
X-91373Y11959D01*
X-91436Y12024D01*
X-91501Y12087D01*
X-91570Y12147D01*
X-91641Y12205D01*
X-91714Y12258D01*
X-91790Y12309D01*
X-91868Y12356D01*
X-91948Y12400D01*
X-92030Y12440D01*
X-92113Y12477D01*
X-92198Y12510D01*
X-92284Y12539D01*
X-92372Y12565D01*
X-92460Y12587D01*
X-92549Y12604D01*
X-92639Y12618D01*
X-92730Y12628D01*
X-92821Y12634D01*
X-92912Y12636D01*
X-92912Y12637D02*
X-96044Y12637D01*
X-100577Y12637D02*
X-100577Y3239D01*
X-105798Y3239D02*
X-100577Y12637D01*
X-105798Y12637D02*
X-105798Y3239D01*
X-110331Y3239D02*
X-110331Y12637D01*
X-112941Y12637D01*
X-113041Y12635D01*
X-113141Y12629D01*
X-113240Y12620D01*
X-113340Y12606D01*
X-113438Y12589D01*
X-113536Y12568D01*
X-113633Y12544D01*
X-113729Y12515D01*
X-113824Y12483D01*
X-113917Y12448D01*
X-114009Y12409D01*
X-114100Y12366D01*
X-114188Y12320D01*
X-114275Y12270D01*
X-114360Y12218D01*
X-114443Y12162D01*
X-114524Y12103D01*
X-114602Y12040D01*
X-114678Y11975D01*
X-114752Y11907D01*
X-114822Y11837D01*
X-114890Y11763D01*
X-114955Y11687D01*
X-115018Y11609D01*
X-115077Y11528D01*
X-115133Y11445D01*
X-115185Y11360D01*
X-115235Y11273D01*
X-115281Y11185D01*
X-115324Y11094D01*
X-115363Y11002D01*
X-115398Y10909D01*
X-115430Y10814D01*
X-115459Y10718D01*
X-115483Y10621D01*
X-115504Y10523D01*
X-115521Y10425D01*
X-115535Y10325D01*
X-115544Y10226D01*
X-115550Y10126D01*
X-115552Y10026D01*
X-115552Y5849D01*
X-115550Y5749D01*
X-115544Y5649D01*
X-115535Y5550D01*
X-115521Y5450D01*
X-115504Y5352D01*
X-115483Y5254D01*
X-115459Y5157D01*
X-115430Y5061D01*
X-115398Y4966D01*
X-115363Y4873D01*
X-115324Y4781D01*
X-115281Y4690D01*
X-115235Y4602D01*
X-115185Y4515D01*
X-115133Y4430D01*
X-115077Y4347D01*
X-115018Y4266D01*
X-114955Y4188D01*
X-114890Y4112D01*
X-114822Y4038D01*
X-114752Y3968D01*
X-114678Y3900D01*
X-114602Y3835D01*
X-114524Y3772D01*
X-114443Y3713D01*
X-114360Y3657D01*
X-114275Y3605D01*
X-114188Y3555D01*
X-114100Y3509D01*
X-114009Y3466D01*
X-113917Y3427D01*
X-113824Y3392D01*
X-113729Y3360D01*
X-113633Y3331D01*
X-113536Y3307D01*
X-113438Y3286D01*
X-113340Y3269D01*
X-113240Y3255D01*
X-113141Y3246D01*
X-113041Y3240D01*
X-112941Y3238D01*
X-112941Y3239D02*
X-110331Y3239D01*
D11*
X-60833Y10033D02*
X-60833Y21717D01*
X-64079Y21717D01*
X-64192Y21715D01*
X-64305Y21709D01*
X-64418Y21699D01*
X-64531Y21685D01*
X-64643Y21668D01*
X-64754Y21646D01*
X-64864Y21621D01*
X-64974Y21591D01*
X-65082Y21558D01*
X-65189Y21521D01*
X-65295Y21481D01*
X-65399Y21436D01*
X-65502Y21388D01*
X-65603Y21337D01*
X-65702Y21282D01*
X-65799Y21224D01*
X-65894Y21162D01*
X-65987Y21097D01*
X-66077Y21029D01*
X-66165Y20958D01*
X-66251Y20883D01*
X-66334Y20806D01*
X-66414Y20726D01*
X-66491Y20643D01*
X-66566Y20557D01*
X-66637Y20469D01*
X-66705Y20379D01*
X-66770Y20286D01*
X-66832Y20191D01*
X-66890Y20094D01*
X-66945Y19995D01*
X-66996Y19894D01*
X-67044Y19791D01*
X-67089Y19687D01*
X-67129Y19581D01*
X-67166Y19474D01*
X-67199Y19366D01*
X-67229Y19256D01*
X-67254Y19146D01*
X-67276Y19035D01*
X-67293Y18923D01*
X-67307Y18810D01*
X-67317Y18697D01*
X-67323Y18584D01*
X-67325Y18471D01*
X-67323Y18358D01*
X-67317Y18245D01*
X-67307Y18132D01*
X-67293Y18019D01*
X-67276Y17907D01*
X-67254Y17796D01*
X-67229Y17686D01*
X-67199Y17576D01*
X-67166Y17468D01*
X-67129Y17361D01*
X-67089Y17255D01*
X-67044Y17151D01*
X-66996Y17048D01*
X-66945Y16947D01*
X-66890Y16848D01*
X-66832Y16751D01*
X-66770Y16656D01*
X-66705Y16563D01*
X-66637Y16473D01*
X-66566Y16385D01*
X-66491Y16299D01*
X-66414Y16216D01*
X-66334Y16136D01*
X-66251Y16059D01*
X-66165Y15984D01*
X-66077Y15913D01*
X-65987Y15845D01*
X-65894Y15780D01*
X-65799Y15718D01*
X-65702Y15660D01*
X-65603Y15605D01*
X-65502Y15554D01*
X-65399Y15506D01*
X-65295Y15461D01*
X-65189Y15421D01*
X-65082Y15384D01*
X-64974Y15351D01*
X-64864Y15321D01*
X-64754Y15296D01*
X-64643Y15274D01*
X-64531Y15257D01*
X-64418Y15243D01*
X-64305Y15233D01*
X-64192Y15227D01*
X-64079Y15225D01*
X-64079Y15226D02*
X-60833Y15226D01*
X-71713Y16524D02*
X-75607Y16524D01*
X-75706Y16522D01*
X-75806Y16516D01*
X-75905Y16507D01*
X-76003Y16494D01*
X-76101Y16477D01*
X-76199Y16456D01*
X-76295Y16431D01*
X-76390Y16403D01*
X-76484Y16371D01*
X-76577Y16336D01*
X-76669Y16297D01*
X-76759Y16254D01*
X-76847Y16209D01*
X-76934Y16159D01*
X-77018Y16107D01*
X-77101Y16051D01*
X-77181Y15993D01*
X-77259Y15931D01*
X-77334Y15866D01*
X-77407Y15798D01*
X-77477Y15728D01*
X-77545Y15655D01*
X-77610Y15580D01*
X-77672Y15502D01*
X-77730Y15422D01*
X-77786Y15339D01*
X-77838Y15255D01*
X-77888Y15168D01*
X-77933Y15080D01*
X-77976Y14990D01*
X-78015Y14898D01*
X-78050Y14805D01*
X-78082Y14711D01*
X-78110Y14616D01*
X-78135Y14520D01*
X-78156Y14422D01*
X-78173Y14324D01*
X-78186Y14226D01*
X-78195Y14127D01*
X-78201Y14027D01*
X-78203Y13928D01*
X-78204Y13928D02*
X-78204Y13279D01*
X-78202Y13166D01*
X-78196Y13053D01*
X-78186Y12940D01*
X-78172Y12827D01*
X-78155Y12715D01*
X-78133Y12604D01*
X-78108Y12494D01*
X-78078Y12384D01*
X-78045Y12276D01*
X-78008Y12169D01*
X-77968Y12063D01*
X-77923Y11959D01*
X-77875Y11856D01*
X-77824Y11755D01*
X-77769Y11656D01*
X-77711Y11559D01*
X-77649Y11464D01*
X-77584Y11371D01*
X-77516Y11281D01*
X-77445Y11193D01*
X-77370Y11107D01*
X-77293Y11024D01*
X-77213Y10944D01*
X-77130Y10867D01*
X-77044Y10792D01*
X-76956Y10721D01*
X-76866Y10653D01*
X-76773Y10588D01*
X-76678Y10526D01*
X-76581Y10468D01*
X-76482Y10413D01*
X-76381Y10362D01*
X-76278Y10314D01*
X-76174Y10269D01*
X-76068Y10229D01*
X-75961Y10192D01*
X-75853Y10159D01*
X-75743Y10129D01*
X-75633Y10104D01*
X-75522Y10082D01*
X-75410Y10065D01*
X-75297Y10051D01*
X-75184Y10041D01*
X-75071Y10035D01*
X-74958Y10033D01*
X-74845Y10035D01*
X-74732Y10041D01*
X-74619Y10051D01*
X-74506Y10065D01*
X-74394Y10082D01*
X-74283Y10104D01*
X-74173Y10129D01*
X-74063Y10159D01*
X-73955Y10192D01*
X-73848Y10229D01*
X-73742Y10269D01*
X-73638Y10314D01*
X-73535Y10362D01*
X-73434Y10413D01*
X-73335Y10468D01*
X-73238Y10526D01*
X-73143Y10588D01*
X-73050Y10653D01*
X-72960Y10721D01*
X-72872Y10792D01*
X-72786Y10867D01*
X-72703Y10944D01*
X-72623Y11024D01*
X-72546Y11107D01*
X-72471Y11193D01*
X-72400Y11281D01*
X-72332Y11371D01*
X-72267Y11464D01*
X-72205Y11559D01*
X-72147Y11656D01*
X-72092Y11755D01*
X-72041Y11856D01*
X-71993Y11959D01*
X-71948Y12063D01*
X-71908Y12169D01*
X-71871Y12276D01*
X-71838Y12384D01*
X-71808Y12494D01*
X-71783Y12604D01*
X-71761Y12715D01*
X-71744Y12827D01*
X-71730Y12940D01*
X-71720Y13053D01*
X-71714Y13166D01*
X-71712Y13279D01*
X-71713Y13279D02*
X-71713Y16524D01*
X-71715Y16667D01*
X-71721Y16810D01*
X-71731Y16953D01*
X-71745Y17095D01*
X-71762Y17237D01*
X-71784Y17379D01*
X-71809Y17520D01*
X-71839Y17660D01*
X-71872Y17799D01*
X-71909Y17937D01*
X-71950Y18074D01*
X-71994Y18210D01*
X-72043Y18345D01*
X-72095Y18478D01*
X-72150Y18610D01*
X-72210Y18740D01*
X-72273Y18869D01*
X-72339Y18996D01*
X-72409Y19120D01*
X-72482Y19243D01*
X-72559Y19364D01*
X-72639Y19483D01*
X-72722Y19599D01*
X-72808Y19714D01*
X-72897Y19825D01*
X-72990Y19935D01*
X-73085Y20041D01*
X-73184Y20145D01*
X-73285Y20246D01*
X-73389Y20345D01*
X-73495Y20440D01*
X-73605Y20533D01*
X-73716Y20622D01*
X-73831Y20708D01*
X-73947Y20791D01*
X-74066Y20871D01*
X-74187Y20948D01*
X-74309Y21021D01*
X-74434Y21091D01*
X-74561Y21157D01*
X-74690Y21220D01*
X-74820Y21280D01*
X-74952Y21335D01*
X-75085Y21387D01*
X-75220Y21436D01*
X-75356Y21480D01*
X-75493Y21521D01*
X-75631Y21558D01*
X-75770Y21591D01*
X-75910Y21621D01*
X-76051Y21646D01*
X-76193Y21668D01*
X-76335Y21685D01*
X-76477Y21699D01*
X-76620Y21709D01*
X-76763Y21715D01*
X-76906Y21717D01*
X77280Y21717D02*
X77280Y10033D01*
X77280Y21717D02*
X74034Y21717D01*
X73921Y21715D01*
X73808Y21709D01*
X73695Y21699D01*
X73582Y21685D01*
X73470Y21668D01*
X73359Y21646D01*
X73249Y21621D01*
X73139Y21591D01*
X73031Y21558D01*
X72924Y21521D01*
X72818Y21481D01*
X72714Y21436D01*
X72611Y21388D01*
X72510Y21337D01*
X72411Y21282D01*
X72314Y21224D01*
X72219Y21162D01*
X72126Y21097D01*
X72036Y21029D01*
X71948Y20958D01*
X71862Y20883D01*
X71779Y20806D01*
X71699Y20726D01*
X71622Y20643D01*
X71547Y20557D01*
X71476Y20469D01*
X71408Y20379D01*
X71343Y20286D01*
X71281Y20191D01*
X71223Y20094D01*
X71168Y19995D01*
X71117Y19894D01*
X71069Y19791D01*
X71024Y19687D01*
X70984Y19581D01*
X70947Y19474D01*
X70914Y19366D01*
X70884Y19256D01*
X70859Y19146D01*
X70837Y19035D01*
X70820Y18923D01*
X70806Y18810D01*
X70796Y18697D01*
X70790Y18584D01*
X70788Y18471D01*
X70790Y18358D01*
X70796Y18245D01*
X70806Y18132D01*
X70820Y18019D01*
X70837Y17907D01*
X70859Y17796D01*
X70884Y17686D01*
X70914Y17576D01*
X70947Y17468D01*
X70984Y17361D01*
X71024Y17255D01*
X71069Y17151D01*
X71117Y17048D01*
X71168Y16947D01*
X71223Y16848D01*
X71281Y16751D01*
X71343Y16656D01*
X71408Y16563D01*
X71476Y16473D01*
X71547Y16385D01*
X71622Y16299D01*
X71699Y16216D01*
X71779Y16136D01*
X71862Y16059D01*
X71948Y15984D01*
X72036Y15913D01*
X72126Y15845D01*
X72219Y15780D01*
X72314Y15718D01*
X72411Y15660D01*
X72510Y15605D01*
X72611Y15554D01*
X72714Y15506D01*
X72818Y15461D01*
X72924Y15421D01*
X73031Y15384D01*
X73139Y15351D01*
X73249Y15321D01*
X73359Y15296D01*
X73470Y15274D01*
X73582Y15257D01*
X73695Y15243D01*
X73808Y15233D01*
X73921Y15227D01*
X74034Y15225D01*
X74034Y15226D02*
X77280Y15226D01*
X66400Y19121D02*
X63154Y21717D01*
X63154Y10033D01*
X59909Y10033D02*
X66400Y10033D01*
D10*
X6279Y61623D02*
X5052Y61623D01*
X5052Y57531D01*
X7507Y57531D01*
X7585Y57533D01*
X7663Y57538D01*
X7740Y57548D01*
X7817Y57561D01*
X7893Y57577D01*
X7968Y57597D01*
X8042Y57621D01*
X8115Y57648D01*
X8187Y57679D01*
X8257Y57713D01*
X8326Y57750D01*
X8392Y57791D01*
X8457Y57835D01*
X8519Y57881D01*
X8579Y57931D01*
X8637Y57983D01*
X8692Y58038D01*
X8744Y58096D01*
X8794Y58156D01*
X8840Y58218D01*
X8884Y58283D01*
X8925Y58350D01*
X8962Y58418D01*
X8996Y58488D01*
X9027Y58560D01*
X9054Y58633D01*
X9078Y58707D01*
X9098Y58782D01*
X9114Y58858D01*
X9127Y58935D01*
X9137Y59012D01*
X9142Y59090D01*
X9144Y59168D01*
X9144Y63260D01*
X9142Y63338D01*
X9137Y63416D01*
X9127Y63493D01*
X9114Y63570D01*
X9098Y63646D01*
X9078Y63721D01*
X9054Y63795D01*
X9027Y63868D01*
X8996Y63940D01*
X8962Y64010D01*
X8925Y64079D01*
X8884Y64145D01*
X8840Y64210D01*
X8794Y64272D01*
X8744Y64332D01*
X8692Y64390D01*
X8637Y64445D01*
X8579Y64497D01*
X8519Y64547D01*
X8457Y64593D01*
X8392Y64637D01*
X8326Y64678D01*
X8257Y64715D01*
X8187Y64749D01*
X8115Y64780D01*
X8042Y64807D01*
X7968Y64831D01*
X7893Y64851D01*
X7817Y64867D01*
X7740Y64880D01*
X7663Y64890D01*
X7585Y64895D01*
X7507Y64897D01*
X5052Y64897D01*
X1341Y64897D02*
X1341Y57531D01*
X-2751Y57531D02*
X1341Y64897D01*
X-2751Y64897D02*
X-2751Y57531D01*
X-6462Y57531D02*
X-6462Y64897D01*
X-8508Y64897D01*
X-8597Y64895D01*
X-8686Y64889D01*
X-8775Y64879D01*
X-8863Y64866D01*
X-8951Y64849D01*
X-9038Y64827D01*
X-9123Y64802D01*
X-9208Y64774D01*
X-9291Y64741D01*
X-9373Y64705D01*
X-9453Y64666D01*
X-9531Y64623D01*
X-9607Y64577D01*
X-9682Y64527D01*
X-9754Y64474D01*
X-9823Y64418D01*
X-9890Y64359D01*
X-9955Y64298D01*
X-10016Y64233D01*
X-10075Y64166D01*
X-10131Y64097D01*
X-10184Y64025D01*
X-10234Y63950D01*
X-10280Y63874D01*
X-10323Y63796D01*
X-10362Y63716D01*
X-10398Y63634D01*
X-10431Y63551D01*
X-10459Y63466D01*
X-10484Y63381D01*
X-10506Y63294D01*
X-10523Y63206D01*
X-10536Y63118D01*
X-10546Y63029D01*
X-10552Y62940D01*
X-10554Y62851D01*
X-10554Y59577D01*
X-10552Y59488D01*
X-10546Y59399D01*
X-10536Y59310D01*
X-10523Y59222D01*
X-10506Y59134D01*
X-10484Y59047D01*
X-10459Y58962D01*
X-10431Y58877D01*
X-10398Y58794D01*
X-10362Y58712D01*
X-10323Y58632D01*
X-10280Y58554D01*
X-10234Y58478D01*
X-10184Y58403D01*
X-10131Y58331D01*
X-10075Y58262D01*
X-10016Y58195D01*
X-9955Y58130D01*
X-9890Y58069D01*
X-9823Y58010D01*
X-9754Y57954D01*
X-9682Y57901D01*
X-9607Y57851D01*
X-9531Y57805D01*
X-9453Y57762D01*
X-9373Y57723D01*
X-9291Y57687D01*
X-9208Y57654D01*
X-9123Y57626D01*
X-9038Y57601D01*
X-8951Y57579D01*
X-8863Y57562D01*
X-8775Y57549D01*
X-8686Y57539D01*
X-8597Y57533D01*
X-8508Y57531D01*
X-6462Y57531D01*
X7098Y3556D02*
X9144Y3556D01*
X7098Y3556D02*
X7009Y3558D01*
X6920Y3564D01*
X6831Y3574D01*
X6743Y3587D01*
X6655Y3604D01*
X6568Y3626D01*
X6483Y3651D01*
X6398Y3679D01*
X6315Y3712D01*
X6233Y3748D01*
X6153Y3787D01*
X6075Y3830D01*
X5999Y3876D01*
X5924Y3926D01*
X5852Y3979D01*
X5783Y4035D01*
X5716Y4094D01*
X5651Y4155D01*
X5590Y4220D01*
X5531Y4287D01*
X5475Y4356D01*
X5422Y4428D01*
X5372Y4503D01*
X5326Y4579D01*
X5283Y4657D01*
X5244Y4737D01*
X5208Y4819D01*
X5175Y4902D01*
X5147Y4987D01*
X5122Y5072D01*
X5100Y5159D01*
X5083Y5247D01*
X5070Y5335D01*
X5060Y5424D01*
X5054Y5513D01*
X5052Y5602D01*
X5054Y5691D01*
X5060Y5780D01*
X5070Y5869D01*
X5083Y5957D01*
X5100Y6045D01*
X5122Y6132D01*
X5147Y6217D01*
X5175Y6302D01*
X5208Y6385D01*
X5244Y6467D01*
X5283Y6547D01*
X5326Y6625D01*
X5372Y6701D01*
X5422Y6776D01*
X5475Y6848D01*
X5531Y6917D01*
X5590Y6984D01*
X5651Y7049D01*
X5716Y7110D01*
X5783Y7169D01*
X5852Y7225D01*
X5924Y7278D01*
X5999Y7328D01*
X6075Y7374D01*
X6153Y7417D01*
X6233Y7456D01*
X6315Y7492D01*
X6398Y7525D01*
X6483Y7553D01*
X6568Y7578D01*
X6655Y7600D01*
X6743Y7617D01*
X6831Y7630D01*
X6920Y7640D01*
X7009Y7646D01*
X7098Y7648D01*
X6689Y10922D02*
X9144Y10922D01*
X6689Y10922D02*
X6610Y10920D01*
X6531Y10914D01*
X6452Y10905D01*
X6374Y10892D01*
X6297Y10874D01*
X6221Y10854D01*
X6146Y10829D01*
X6072Y10801D01*
X5999Y10770D01*
X5928Y10734D01*
X5859Y10696D01*
X5792Y10654D01*
X5727Y10609D01*
X5664Y10561D01*
X5603Y10510D01*
X5546Y10456D01*
X5490Y10400D01*
X5438Y10341D01*
X5388Y10279D01*
X5342Y10215D01*
X5298Y10149D01*
X5258Y10081D01*
X5222Y10011D01*
X5188Y9939D01*
X5158Y9865D01*
X5132Y9791D01*
X5109Y9715D01*
X5091Y9638D01*
X5075Y9561D01*
X5064Y9482D01*
X5056Y9404D01*
X5052Y9325D01*
X5052Y9245D01*
X5056Y9166D01*
X5064Y9088D01*
X5075Y9009D01*
X5091Y8932D01*
X5109Y8855D01*
X5132Y8779D01*
X5158Y8705D01*
X5188Y8631D01*
X5222Y8559D01*
X5258Y8489D01*
X5298Y8421D01*
X5342Y8355D01*
X5388Y8291D01*
X5438Y8229D01*
X5490Y8170D01*
X5546Y8114D01*
X5603Y8060D01*
X5664Y8009D01*
X5727Y7961D01*
X5792Y7916D01*
X5859Y7874D01*
X5928Y7836D01*
X5999Y7800D01*
X6072Y7769D01*
X6146Y7741D01*
X6221Y7716D01*
X6297Y7696D01*
X6374Y7678D01*
X6452Y7665D01*
X6531Y7656D01*
X6610Y7650D01*
X6689Y7648D01*
X8326Y7648D01*
X2238Y10922D02*
X-217Y3556D01*
X-2673Y10922D01*
X-5486Y3556D02*
X-7532Y3556D01*
X-7621Y3558D01*
X-7710Y3564D01*
X-7799Y3574D01*
X-7887Y3587D01*
X-7975Y3604D01*
X-8062Y3626D01*
X-8147Y3651D01*
X-8232Y3679D01*
X-8315Y3712D01*
X-8397Y3748D01*
X-8477Y3787D01*
X-8555Y3830D01*
X-8631Y3876D01*
X-8706Y3926D01*
X-8778Y3979D01*
X-8847Y4035D01*
X-8914Y4094D01*
X-8979Y4155D01*
X-9040Y4220D01*
X-9099Y4287D01*
X-9155Y4356D01*
X-9208Y4428D01*
X-9258Y4503D01*
X-9304Y4579D01*
X-9347Y4657D01*
X-9386Y4737D01*
X-9422Y4819D01*
X-9455Y4902D01*
X-9483Y4987D01*
X-9508Y5072D01*
X-9530Y5159D01*
X-9547Y5247D01*
X-9560Y5335D01*
X-9570Y5424D01*
X-9576Y5513D01*
X-9578Y5602D01*
X-9576Y5691D01*
X-9570Y5780D01*
X-9560Y5869D01*
X-9547Y5957D01*
X-9530Y6045D01*
X-9508Y6132D01*
X-9483Y6217D01*
X-9455Y6302D01*
X-9422Y6385D01*
X-9386Y6467D01*
X-9347Y6547D01*
X-9304Y6625D01*
X-9258Y6701D01*
X-9208Y6776D01*
X-9155Y6848D01*
X-9099Y6917D01*
X-9040Y6984D01*
X-8979Y7049D01*
X-8914Y7110D01*
X-8847Y7169D01*
X-8778Y7225D01*
X-8706Y7278D01*
X-8631Y7328D01*
X-8555Y7374D01*
X-8477Y7417D01*
X-8397Y7456D01*
X-8315Y7492D01*
X-8232Y7525D01*
X-8147Y7553D01*
X-8062Y7578D01*
X-7975Y7600D01*
X-7887Y7617D01*
X-7799Y7630D01*
X-7710Y7640D01*
X-7621Y7646D01*
X-7532Y7648D01*
X-7942Y10922D02*
X-5486Y10922D01*
X-7942Y10922D02*
X-8021Y10920D01*
X-8100Y10914D01*
X-8179Y10905D01*
X-8257Y10892D01*
X-8334Y10874D01*
X-8410Y10854D01*
X-8485Y10829D01*
X-8559Y10801D01*
X-8632Y10770D01*
X-8703Y10734D01*
X-8772Y10696D01*
X-8839Y10654D01*
X-8904Y10609D01*
X-8967Y10561D01*
X-9028Y10510D01*
X-9085Y10456D01*
X-9141Y10400D01*
X-9193Y10341D01*
X-9243Y10279D01*
X-9289Y10215D01*
X-9333Y10149D01*
X-9373Y10081D01*
X-9409Y10011D01*
X-9443Y9939D01*
X-9473Y9865D01*
X-9499Y9791D01*
X-9522Y9715D01*
X-9540Y9638D01*
X-9556Y9561D01*
X-9567Y9482D01*
X-9575Y9404D01*
X-9579Y9325D01*
X-9579Y9245D01*
X-9575Y9166D01*
X-9567Y9088D01*
X-9556Y9009D01*
X-9540Y8932D01*
X-9522Y8855D01*
X-9499Y8779D01*
X-9473Y8705D01*
X-9443Y8631D01*
X-9409Y8559D01*
X-9373Y8489D01*
X-9333Y8421D01*
X-9289Y8355D01*
X-9243Y8291D01*
X-9193Y8229D01*
X-9141Y8170D01*
X-9085Y8114D01*
X-9028Y8060D01*
X-8967Y8009D01*
X-8904Y7961D01*
X-8839Y7916D01*
X-8772Y7874D01*
X-8703Y7836D01*
X-8632Y7800D01*
X-8559Y7769D01*
X-8485Y7741D01*
X-8410Y7716D01*
X-8334Y7696D01*
X-8257Y7678D01*
X-8179Y7665D01*
X-8100Y7656D01*
X-8021Y7650D01*
X-7942Y7648D01*
X-6305Y7648D01*
X-16256Y57531D02*
X-16256Y64897D01*
X-18302Y64897D01*
X-18391Y64895D01*
X-18480Y64889D01*
X-18569Y64879D01*
X-18657Y64866D01*
X-18745Y64849D01*
X-18832Y64827D01*
X-18917Y64802D01*
X-19002Y64774D01*
X-19085Y64741D01*
X-19167Y64705D01*
X-19247Y64666D01*
X-19325Y64623D01*
X-19401Y64577D01*
X-19476Y64527D01*
X-19548Y64474D01*
X-19617Y64418D01*
X-19684Y64359D01*
X-19749Y64298D01*
X-19810Y64233D01*
X-19869Y64166D01*
X-19925Y64097D01*
X-19978Y64025D01*
X-20028Y63950D01*
X-20074Y63874D01*
X-20117Y63796D01*
X-20156Y63716D01*
X-20192Y63634D01*
X-20225Y63551D01*
X-20253Y63466D01*
X-20278Y63381D01*
X-20300Y63294D01*
X-20317Y63206D01*
X-20330Y63118D01*
X-20340Y63029D01*
X-20346Y62940D01*
X-20348Y62851D01*
X-20346Y62762D01*
X-20340Y62673D01*
X-20330Y62584D01*
X-20317Y62496D01*
X-20300Y62408D01*
X-20278Y62321D01*
X-20253Y62236D01*
X-20225Y62151D01*
X-20192Y62068D01*
X-20156Y61986D01*
X-20117Y61906D01*
X-20074Y61828D01*
X-20028Y61752D01*
X-19978Y61677D01*
X-19925Y61605D01*
X-19869Y61536D01*
X-19810Y61469D01*
X-19749Y61404D01*
X-19684Y61343D01*
X-19617Y61284D01*
X-19548Y61228D01*
X-19476Y61175D01*
X-19401Y61125D01*
X-19325Y61079D01*
X-19247Y61036D01*
X-19167Y60997D01*
X-19085Y60961D01*
X-19002Y60928D01*
X-18917Y60900D01*
X-18832Y60875D01*
X-18745Y60853D01*
X-18657Y60836D01*
X-18569Y60823D01*
X-18480Y60813D01*
X-18391Y60807D01*
X-18302Y60805D01*
X-16256Y60805D01*
X-23210Y61623D02*
X-25665Y61623D01*
X-25743Y61621D01*
X-25821Y61616D01*
X-25898Y61606D01*
X-25975Y61593D01*
X-26051Y61577D01*
X-26126Y61557D01*
X-26200Y61533D01*
X-26273Y61506D01*
X-26345Y61475D01*
X-26415Y61441D01*
X-26484Y61404D01*
X-26550Y61363D01*
X-26615Y61319D01*
X-26677Y61273D01*
X-26737Y61223D01*
X-26795Y61171D01*
X-26850Y61116D01*
X-26902Y61058D01*
X-26952Y60998D01*
X-26998Y60936D01*
X-27042Y60871D01*
X-27083Y60805D01*
X-27120Y60736D01*
X-27154Y60666D01*
X-27185Y60594D01*
X-27212Y60521D01*
X-27236Y60447D01*
X-27256Y60372D01*
X-27272Y60296D01*
X-27285Y60219D01*
X-27295Y60142D01*
X-27300Y60064D01*
X-27302Y59986D01*
X-27302Y59577D01*
X-27300Y59488D01*
X-27294Y59399D01*
X-27284Y59310D01*
X-27271Y59222D01*
X-27254Y59134D01*
X-27232Y59047D01*
X-27207Y58962D01*
X-27179Y58877D01*
X-27146Y58794D01*
X-27110Y58712D01*
X-27071Y58632D01*
X-27028Y58554D01*
X-26982Y58478D01*
X-26932Y58403D01*
X-26879Y58331D01*
X-26823Y58262D01*
X-26764Y58195D01*
X-26703Y58130D01*
X-26638Y58069D01*
X-26571Y58010D01*
X-26502Y57954D01*
X-26430Y57901D01*
X-26355Y57851D01*
X-26279Y57805D01*
X-26201Y57762D01*
X-26121Y57723D01*
X-26039Y57687D01*
X-25956Y57654D01*
X-25871Y57626D01*
X-25786Y57601D01*
X-25699Y57579D01*
X-25611Y57562D01*
X-25523Y57549D01*
X-25434Y57539D01*
X-25345Y57533D01*
X-25256Y57531D01*
X-25167Y57533D01*
X-25078Y57539D01*
X-24989Y57549D01*
X-24901Y57562D01*
X-24813Y57579D01*
X-24726Y57601D01*
X-24641Y57626D01*
X-24556Y57654D01*
X-24473Y57687D01*
X-24391Y57723D01*
X-24311Y57762D01*
X-24233Y57805D01*
X-24157Y57851D01*
X-24082Y57901D01*
X-24010Y57954D01*
X-23941Y58010D01*
X-23874Y58069D01*
X-23809Y58130D01*
X-23748Y58195D01*
X-23689Y58262D01*
X-23633Y58331D01*
X-23580Y58403D01*
X-23530Y58478D01*
X-23484Y58554D01*
X-23441Y58632D01*
X-23402Y58712D01*
X-23366Y58794D01*
X-23333Y58877D01*
X-23305Y58962D01*
X-23280Y59047D01*
X-23258Y59134D01*
X-23241Y59222D01*
X-23228Y59310D01*
X-23218Y59399D01*
X-23212Y59488D01*
X-23210Y59577D01*
X-23210Y61623D01*
X-23209Y61623D02*
X-23211Y61737D01*
X-23217Y61851D01*
X-23227Y61965D01*
X-23241Y62079D01*
X-23259Y62192D01*
X-23281Y62304D01*
X-23306Y62415D01*
X-23336Y62525D01*
X-23369Y62635D01*
X-23406Y62743D01*
X-23447Y62849D01*
X-23492Y62955D01*
X-23540Y63058D01*
X-23592Y63160D01*
X-23648Y63260D01*
X-23706Y63358D01*
X-23769Y63454D01*
X-23834Y63547D01*
X-23903Y63639D01*
X-23975Y63727D01*
X-24050Y63814D01*
X-24128Y63897D01*
X-24209Y63978D01*
X-24292Y64056D01*
X-24379Y64131D01*
X-24467Y64203D01*
X-24559Y64272D01*
X-24652Y64337D01*
X-24748Y64399D01*
X-24846Y64458D01*
X-24946Y64514D01*
X-25048Y64566D01*
X-25151Y64614D01*
X-25257Y64659D01*
X-25363Y64700D01*
X-25471Y64737D01*
X-25581Y64770D01*
X-25691Y64800D01*
X-25802Y64825D01*
X-25914Y64847D01*
X-26027Y64865D01*
X-26141Y64879D01*
X-26255Y64889D01*
X-26369Y64895D01*
X-26483Y64897D01*
X-30769Y64897D02*
X-30769Y59577D01*
X-30771Y59488D01*
X-30777Y59399D01*
X-30787Y59310D01*
X-30800Y59222D01*
X-30817Y59134D01*
X-30839Y59047D01*
X-30864Y58962D01*
X-30892Y58877D01*
X-30925Y58794D01*
X-30961Y58712D01*
X-31000Y58632D01*
X-31043Y58554D01*
X-31089Y58478D01*
X-31139Y58403D01*
X-31192Y58331D01*
X-31248Y58262D01*
X-31307Y58195D01*
X-31368Y58130D01*
X-31433Y58069D01*
X-31500Y58010D01*
X-31569Y57954D01*
X-31641Y57901D01*
X-31716Y57851D01*
X-31792Y57805D01*
X-31870Y57762D01*
X-31950Y57723D01*
X-32032Y57687D01*
X-32115Y57654D01*
X-32200Y57626D01*
X-32285Y57601D01*
X-32372Y57579D01*
X-32460Y57562D01*
X-32548Y57549D01*
X-32637Y57539D01*
X-32726Y57533D01*
X-32815Y57531D01*
X-32904Y57533D01*
X-32993Y57539D01*
X-33082Y57549D01*
X-33170Y57562D01*
X-33258Y57579D01*
X-33345Y57601D01*
X-33430Y57626D01*
X-33515Y57654D01*
X-33598Y57687D01*
X-33680Y57723D01*
X-33760Y57762D01*
X-33838Y57805D01*
X-33914Y57851D01*
X-33989Y57901D01*
X-34061Y57954D01*
X-34130Y58010D01*
X-34197Y58069D01*
X-34262Y58130D01*
X-34323Y58195D01*
X-34382Y58262D01*
X-34438Y58331D01*
X-34491Y58403D01*
X-34541Y58478D01*
X-34587Y58554D01*
X-34630Y58632D01*
X-34669Y58712D01*
X-34705Y58794D01*
X-34738Y58877D01*
X-34766Y58962D01*
X-34791Y59047D01*
X-34813Y59134D01*
X-34830Y59222D01*
X-34843Y59310D01*
X-34853Y59399D01*
X-34859Y59488D01*
X-34861Y59577D01*
X-34861Y64897D01*
X-16256Y10922D02*
X-16256Y3556D01*
X-16256Y10922D02*
X-18302Y10922D01*
X-18391Y10920D01*
X-18480Y10914D01*
X-18569Y10904D01*
X-18657Y10891D01*
X-18745Y10874D01*
X-18832Y10852D01*
X-18917Y10827D01*
X-19002Y10799D01*
X-19085Y10766D01*
X-19167Y10730D01*
X-19247Y10691D01*
X-19325Y10648D01*
X-19401Y10602D01*
X-19476Y10552D01*
X-19548Y10499D01*
X-19617Y10443D01*
X-19684Y10384D01*
X-19749Y10323D01*
X-19810Y10258D01*
X-19869Y10191D01*
X-19925Y10122D01*
X-19978Y10050D01*
X-20028Y9975D01*
X-20074Y9899D01*
X-20117Y9821D01*
X-20156Y9741D01*
X-20192Y9659D01*
X-20225Y9576D01*
X-20253Y9491D01*
X-20278Y9406D01*
X-20300Y9319D01*
X-20317Y9231D01*
X-20330Y9143D01*
X-20340Y9054D01*
X-20346Y8965D01*
X-20348Y8876D01*
X-20346Y8787D01*
X-20340Y8698D01*
X-20330Y8609D01*
X-20317Y8521D01*
X-20300Y8433D01*
X-20278Y8346D01*
X-20253Y8261D01*
X-20225Y8176D01*
X-20192Y8093D01*
X-20156Y8011D01*
X-20117Y7931D01*
X-20074Y7853D01*
X-20028Y7777D01*
X-19978Y7702D01*
X-19925Y7630D01*
X-19869Y7561D01*
X-19810Y7494D01*
X-19749Y7429D01*
X-19684Y7368D01*
X-19617Y7309D01*
X-19548Y7253D01*
X-19476Y7200D01*
X-19401Y7150D01*
X-19325Y7104D01*
X-19247Y7061D01*
X-19167Y7022D01*
X-19085Y6986D01*
X-19002Y6953D01*
X-18917Y6925D01*
X-18832Y6900D01*
X-18745Y6878D01*
X-18657Y6861D01*
X-18569Y6848D01*
X-18480Y6838D01*
X-18391Y6832D01*
X-18302Y6830D01*
X-16256Y6830D01*
X-23210Y7648D02*
X-25665Y7648D01*
X-25743Y7646D01*
X-25821Y7641D01*
X-25898Y7631D01*
X-25975Y7618D01*
X-26051Y7602D01*
X-26126Y7582D01*
X-26200Y7558D01*
X-26273Y7531D01*
X-26345Y7500D01*
X-26415Y7466D01*
X-26484Y7429D01*
X-26550Y7388D01*
X-26615Y7344D01*
X-26677Y7298D01*
X-26737Y7248D01*
X-26795Y7196D01*
X-26850Y7141D01*
X-26902Y7083D01*
X-26952Y7023D01*
X-26998Y6961D01*
X-27042Y6896D01*
X-27083Y6830D01*
X-27120Y6761D01*
X-27154Y6691D01*
X-27185Y6619D01*
X-27212Y6546D01*
X-27236Y6472D01*
X-27256Y6397D01*
X-27272Y6321D01*
X-27285Y6244D01*
X-27295Y6167D01*
X-27300Y6089D01*
X-27302Y6011D01*
X-27302Y5602D01*
X-27300Y5513D01*
X-27294Y5424D01*
X-27284Y5335D01*
X-27271Y5247D01*
X-27254Y5159D01*
X-27232Y5072D01*
X-27207Y4987D01*
X-27179Y4902D01*
X-27146Y4819D01*
X-27110Y4737D01*
X-27071Y4657D01*
X-27028Y4579D01*
X-26982Y4503D01*
X-26932Y4428D01*
X-26879Y4356D01*
X-26823Y4287D01*
X-26764Y4220D01*
X-26703Y4155D01*
X-26638Y4094D01*
X-26571Y4035D01*
X-26502Y3979D01*
X-26430Y3926D01*
X-26355Y3876D01*
X-26279Y3830D01*
X-26201Y3787D01*
X-26121Y3748D01*
X-26039Y3712D01*
X-25956Y3679D01*
X-25871Y3651D01*
X-25786Y3626D01*
X-25699Y3604D01*
X-25611Y3587D01*
X-25523Y3574D01*
X-25434Y3564D01*
X-25345Y3558D01*
X-25256Y3556D01*
X-25167Y3558D01*
X-25078Y3564D01*
X-24989Y3574D01*
X-24901Y3587D01*
X-24813Y3604D01*
X-24726Y3626D01*
X-24641Y3651D01*
X-24556Y3679D01*
X-24473Y3712D01*
X-24391Y3748D01*
X-24311Y3787D01*
X-24233Y3830D01*
X-24157Y3876D01*
X-24082Y3926D01*
X-24010Y3979D01*
X-23941Y4035D01*
X-23874Y4094D01*
X-23809Y4155D01*
X-23748Y4220D01*
X-23689Y4287D01*
X-23633Y4356D01*
X-23580Y4428D01*
X-23530Y4503D01*
X-23484Y4579D01*
X-23441Y4657D01*
X-23402Y4737D01*
X-23366Y4819D01*
X-23333Y4902D01*
X-23305Y4987D01*
X-23280Y5072D01*
X-23258Y5159D01*
X-23241Y5247D01*
X-23228Y5335D01*
X-23218Y5424D01*
X-23212Y5513D01*
X-23210Y5602D01*
X-23210Y7648D01*
X-23209Y7648D02*
X-23211Y7762D01*
X-23217Y7876D01*
X-23227Y7990D01*
X-23241Y8104D01*
X-23259Y8217D01*
X-23281Y8329D01*
X-23306Y8440D01*
X-23336Y8550D01*
X-23369Y8660D01*
X-23406Y8768D01*
X-23447Y8874D01*
X-23492Y8980D01*
X-23540Y9083D01*
X-23592Y9185D01*
X-23648Y9285D01*
X-23706Y9383D01*
X-23769Y9479D01*
X-23834Y9572D01*
X-23903Y9664D01*
X-23975Y9752D01*
X-24050Y9839D01*
X-24128Y9922D01*
X-24209Y10003D01*
X-24292Y10081D01*
X-24379Y10156D01*
X-24467Y10228D01*
X-24559Y10297D01*
X-24652Y10362D01*
X-24748Y10424D01*
X-24846Y10483D01*
X-24946Y10539D01*
X-25048Y10591D01*
X-25151Y10639D01*
X-25257Y10684D01*
X-25363Y10725D01*
X-25471Y10762D01*
X-25581Y10795D01*
X-25691Y10825D01*
X-25802Y10850D01*
X-25914Y10872D01*
X-26027Y10890D01*
X-26141Y10904D01*
X-26255Y10914D01*
X-26369Y10920D01*
X-26483Y10922D01*
X-30769Y10922D02*
X-30769Y3556D01*
X-30769Y10922D02*
X-32815Y10922D01*
X-32904Y10920D01*
X-32993Y10914D01*
X-33082Y10904D01*
X-33170Y10891D01*
X-33258Y10874D01*
X-33345Y10852D01*
X-33430Y10827D01*
X-33515Y10799D01*
X-33598Y10766D01*
X-33680Y10730D01*
X-33760Y10691D01*
X-33838Y10648D01*
X-33914Y10602D01*
X-33989Y10552D01*
X-34061Y10499D01*
X-34130Y10443D01*
X-34197Y10384D01*
X-34262Y10323D01*
X-34323Y10258D01*
X-34382Y10191D01*
X-34438Y10122D01*
X-34491Y10050D01*
X-34541Y9975D01*
X-34587Y9899D01*
X-34630Y9821D01*
X-34669Y9741D01*
X-34705Y9659D01*
X-34738Y9576D01*
X-34766Y9491D01*
X-34791Y9406D01*
X-34813Y9319D01*
X-34830Y9231D01*
X-34843Y9143D01*
X-34853Y9054D01*
X-34859Y8965D01*
X-34861Y8876D01*
X-34861Y5602D01*
X-34859Y5513D01*
X-34853Y5424D01*
X-34843Y5335D01*
X-34830Y5247D01*
X-34813Y5159D01*
X-34791Y5072D01*
X-34766Y4987D01*
X-34738Y4902D01*
X-34705Y4819D01*
X-34669Y4737D01*
X-34630Y4657D01*
X-34587Y4579D01*
X-34541Y4503D01*
X-34491Y4428D01*
X-34438Y4356D01*
X-34382Y4287D01*
X-34323Y4220D01*
X-34262Y4155D01*
X-34197Y4094D01*
X-34130Y4035D01*
X-34061Y3979D01*
X-33989Y3926D01*
X-33914Y3876D01*
X-33838Y3830D01*
X-33760Y3787D01*
X-33680Y3748D01*
X-33598Y3712D01*
X-33515Y3679D01*
X-33430Y3651D01*
X-33345Y3626D01*
X-33258Y3604D01*
X-33170Y3587D01*
X-33082Y3574D01*
X-32993Y3564D01*
X-32904Y3558D01*
X-32815Y3556D01*
X-30769Y3556D01*
X34861Y3366D02*
X34861Y10732D01*
X32815Y10732D01*
X32815Y10731D02*
X32726Y10729D01*
X32637Y10723D01*
X32548Y10713D01*
X32460Y10700D01*
X32372Y10683D01*
X32285Y10661D01*
X32200Y10636D01*
X32115Y10608D01*
X32032Y10575D01*
X31950Y10539D01*
X31870Y10500D01*
X31792Y10457D01*
X31716Y10411D01*
X31641Y10361D01*
X31569Y10308D01*
X31500Y10252D01*
X31433Y10193D01*
X31368Y10132D01*
X31307Y10067D01*
X31248Y10000D01*
X31192Y9931D01*
X31139Y9859D01*
X31089Y9784D01*
X31043Y9708D01*
X31000Y9630D01*
X30961Y9550D01*
X30925Y9468D01*
X30892Y9385D01*
X30864Y9300D01*
X30839Y9215D01*
X30817Y9128D01*
X30800Y9040D01*
X30787Y8952D01*
X30777Y8863D01*
X30771Y8774D01*
X30769Y8685D01*
X30771Y8596D01*
X30777Y8507D01*
X30787Y8418D01*
X30800Y8330D01*
X30817Y8242D01*
X30839Y8155D01*
X30864Y8070D01*
X30892Y7985D01*
X30925Y7902D01*
X30961Y7820D01*
X31000Y7740D01*
X31043Y7662D01*
X31089Y7586D01*
X31139Y7511D01*
X31192Y7439D01*
X31248Y7370D01*
X31307Y7303D01*
X31368Y7238D01*
X31433Y7177D01*
X31500Y7118D01*
X31569Y7062D01*
X31641Y7009D01*
X31716Y6959D01*
X31792Y6913D01*
X31870Y6870D01*
X31950Y6831D01*
X32032Y6795D01*
X32115Y6762D01*
X32200Y6734D01*
X32285Y6709D01*
X32372Y6687D01*
X32460Y6670D01*
X32548Y6657D01*
X32637Y6647D01*
X32726Y6641D01*
X32815Y6639D01*
X34861Y6639D01*
X27907Y9095D02*
X25861Y10732D01*
X25861Y3366D01*
X27907Y3366D02*
X23815Y3366D01*
X20348Y3366D02*
X20348Y10732D01*
X18302Y10732D01*
X18302Y10731D02*
X18213Y10729D01*
X18124Y10723D01*
X18035Y10713D01*
X17947Y10700D01*
X17859Y10683D01*
X17772Y10661D01*
X17687Y10636D01*
X17602Y10608D01*
X17519Y10575D01*
X17437Y10539D01*
X17357Y10500D01*
X17279Y10457D01*
X17203Y10411D01*
X17128Y10361D01*
X17056Y10308D01*
X16987Y10252D01*
X16920Y10193D01*
X16855Y10132D01*
X16794Y10067D01*
X16735Y10000D01*
X16679Y9931D01*
X16626Y9859D01*
X16576Y9784D01*
X16530Y9708D01*
X16487Y9630D01*
X16448Y9550D01*
X16412Y9468D01*
X16379Y9385D01*
X16351Y9300D01*
X16326Y9215D01*
X16304Y9128D01*
X16287Y9040D01*
X16274Y8952D01*
X16264Y8863D01*
X16258Y8774D01*
X16256Y8685D01*
X16256Y5412D01*
X16258Y5323D01*
X16264Y5234D01*
X16274Y5145D01*
X16287Y5057D01*
X16304Y4969D01*
X16326Y4882D01*
X16351Y4797D01*
X16379Y4712D01*
X16412Y4629D01*
X16448Y4547D01*
X16487Y4467D01*
X16530Y4389D01*
X16576Y4313D01*
X16626Y4238D01*
X16679Y4166D01*
X16735Y4097D01*
X16794Y4030D01*
X16855Y3965D01*
X16920Y3904D01*
X16987Y3845D01*
X17056Y3789D01*
X17128Y3736D01*
X17203Y3686D01*
X17279Y3640D01*
X17357Y3597D01*
X17437Y3558D01*
X17519Y3522D01*
X17602Y3489D01*
X17687Y3461D01*
X17772Y3436D01*
X17859Y3414D01*
X17947Y3397D01*
X18035Y3384D01*
X18124Y3374D01*
X18213Y3368D01*
X18302Y3366D01*
X20348Y3366D01*
X33273Y57341D02*
X33273Y64707D01*
X31227Y64707D01*
X31227Y64706D02*
X31138Y64704D01*
X31049Y64698D01*
X30960Y64688D01*
X30872Y64675D01*
X30784Y64658D01*
X30697Y64636D01*
X30612Y64611D01*
X30527Y64583D01*
X30444Y64550D01*
X30362Y64514D01*
X30282Y64475D01*
X30204Y64432D01*
X30128Y64386D01*
X30053Y64336D01*
X29981Y64283D01*
X29912Y64227D01*
X29845Y64168D01*
X29780Y64107D01*
X29719Y64042D01*
X29660Y63975D01*
X29604Y63906D01*
X29551Y63834D01*
X29501Y63759D01*
X29455Y63683D01*
X29412Y63605D01*
X29373Y63525D01*
X29337Y63443D01*
X29304Y63360D01*
X29276Y63275D01*
X29251Y63190D01*
X29229Y63103D01*
X29212Y63015D01*
X29199Y62927D01*
X29189Y62838D01*
X29183Y62749D01*
X29181Y62660D01*
X29183Y62571D01*
X29189Y62482D01*
X29199Y62393D01*
X29212Y62305D01*
X29229Y62217D01*
X29251Y62130D01*
X29276Y62045D01*
X29304Y61960D01*
X29337Y61877D01*
X29373Y61795D01*
X29412Y61715D01*
X29455Y61637D01*
X29501Y61561D01*
X29551Y61486D01*
X29604Y61414D01*
X29660Y61345D01*
X29719Y61278D01*
X29780Y61213D01*
X29845Y61152D01*
X29912Y61093D01*
X29981Y61037D01*
X30053Y60984D01*
X30128Y60934D01*
X30204Y60888D01*
X30282Y60845D01*
X30362Y60806D01*
X30444Y60770D01*
X30527Y60737D01*
X30612Y60709D01*
X30697Y60684D01*
X30784Y60662D01*
X30872Y60645D01*
X30960Y60632D01*
X31049Y60622D01*
X31138Y60616D01*
X31227Y60614D01*
X33273Y60614D01*
X26320Y63070D02*
X24274Y64707D01*
X24274Y57341D01*
X26320Y57341D02*
X22228Y57341D01*
X18761Y59387D02*
X18761Y64707D01*
X18761Y59387D02*
X18759Y59298D01*
X18753Y59209D01*
X18743Y59120D01*
X18730Y59032D01*
X18713Y58944D01*
X18691Y58857D01*
X18666Y58772D01*
X18638Y58687D01*
X18605Y58604D01*
X18569Y58522D01*
X18530Y58442D01*
X18487Y58364D01*
X18441Y58288D01*
X18391Y58213D01*
X18338Y58141D01*
X18282Y58072D01*
X18223Y58005D01*
X18162Y57940D01*
X18097Y57879D01*
X18030Y57820D01*
X17961Y57764D01*
X17889Y57711D01*
X17814Y57661D01*
X17738Y57615D01*
X17660Y57572D01*
X17580Y57533D01*
X17498Y57497D01*
X17415Y57464D01*
X17330Y57436D01*
X17245Y57411D01*
X17158Y57389D01*
X17070Y57372D01*
X16982Y57359D01*
X16893Y57349D01*
X16804Y57343D01*
X16715Y57341D01*
X16626Y57343D01*
X16537Y57349D01*
X16448Y57359D01*
X16360Y57372D01*
X16272Y57389D01*
X16185Y57411D01*
X16100Y57436D01*
X16015Y57464D01*
X15932Y57497D01*
X15850Y57533D01*
X15770Y57572D01*
X15692Y57615D01*
X15616Y57661D01*
X15541Y57711D01*
X15469Y57764D01*
X15400Y57820D01*
X15333Y57879D01*
X15268Y57940D01*
X15207Y58005D01*
X15148Y58072D01*
X15092Y58141D01*
X15039Y58213D01*
X14989Y58288D01*
X14943Y58364D01*
X14900Y58442D01*
X14861Y58522D01*
X14825Y58604D01*
X14792Y58687D01*
X14764Y58772D01*
X14739Y58857D01*
X14717Y58944D01*
X14700Y59032D01*
X14687Y59120D01*
X14677Y59209D01*
X14671Y59298D01*
X14669Y59387D01*
X14669Y64707D01*
M02*
