G04 EAGLE Gerber RS-274X export*
G75*
%MOMM*%
%FSLAX34Y34*%
%LPD*%
%INSilkscreen Bottom*%
%IPPOS*%
%AMOC8*
5,1,8,0,0,1.08239X$1,22.5*%
G01*
%ADD10C,0.076200*%
%ADD11C,0.101600*%
%ADD12C,0.050800*%


D10*
X441527Y263068D02*
X439961Y263068D01*
X439961Y257847D01*
X443094Y257847D01*
X443183Y257849D01*
X443271Y257855D01*
X443359Y257864D01*
X443447Y257877D01*
X443534Y257894D01*
X443620Y257914D01*
X443705Y257939D01*
X443790Y257966D01*
X443873Y257998D01*
X443954Y258032D01*
X444034Y258071D01*
X444112Y258112D01*
X444189Y258157D01*
X444263Y258205D01*
X444336Y258256D01*
X444406Y258310D01*
X444473Y258368D01*
X444539Y258428D01*
X444601Y258490D01*
X444661Y258556D01*
X444719Y258623D01*
X444773Y258693D01*
X444824Y258766D01*
X444872Y258840D01*
X444917Y258917D01*
X444958Y258995D01*
X444997Y259075D01*
X445031Y259156D01*
X445063Y259239D01*
X445090Y259324D01*
X445115Y259409D01*
X445135Y259495D01*
X445152Y259582D01*
X445165Y259670D01*
X445174Y259758D01*
X445180Y259846D01*
X445182Y259935D01*
X445182Y265157D01*
X445180Y265246D01*
X445174Y265334D01*
X445165Y265422D01*
X445152Y265510D01*
X445135Y265597D01*
X445115Y265683D01*
X445090Y265768D01*
X445063Y265853D01*
X445031Y265936D01*
X444997Y266017D01*
X444958Y266097D01*
X444917Y266175D01*
X444872Y266252D01*
X444824Y266326D01*
X444773Y266399D01*
X444719Y266469D01*
X444661Y266536D01*
X444601Y266602D01*
X444539Y266664D01*
X444473Y266724D01*
X444406Y266782D01*
X444336Y266836D01*
X444263Y266887D01*
X444189Y266935D01*
X444112Y266980D01*
X444034Y267021D01*
X443954Y267060D01*
X443873Y267094D01*
X443790Y267126D01*
X443705Y267153D01*
X443620Y267178D01*
X443534Y267198D01*
X443447Y267215D01*
X443359Y267228D01*
X443271Y267237D01*
X443183Y267243D01*
X443094Y267245D01*
X439961Y267245D01*
X435429Y267245D02*
X435429Y257847D01*
X430207Y257847D02*
X435429Y267245D01*
X430207Y267245D02*
X430207Y257847D01*
X425675Y257847D02*
X425675Y267245D01*
X423064Y267245D01*
X422964Y267243D01*
X422864Y267237D01*
X422765Y267228D01*
X422665Y267214D01*
X422567Y267197D01*
X422469Y267176D01*
X422372Y267152D01*
X422276Y267123D01*
X422181Y267091D01*
X422088Y267056D01*
X421996Y267017D01*
X421905Y266974D01*
X421817Y266928D01*
X421730Y266878D01*
X421645Y266826D01*
X421562Y266770D01*
X421481Y266711D01*
X421403Y266648D01*
X421327Y266583D01*
X421253Y266515D01*
X421183Y266445D01*
X421115Y266371D01*
X421050Y266295D01*
X420987Y266217D01*
X420928Y266136D01*
X420872Y266053D01*
X420820Y265968D01*
X420770Y265881D01*
X420724Y265793D01*
X420681Y265702D01*
X420642Y265610D01*
X420607Y265517D01*
X420575Y265422D01*
X420546Y265326D01*
X420522Y265229D01*
X420501Y265131D01*
X420484Y265033D01*
X420470Y264933D01*
X420461Y264834D01*
X420455Y264734D01*
X420453Y264634D01*
X420454Y264634D02*
X420454Y260458D01*
X420453Y260458D02*
X420455Y260358D01*
X420461Y260258D01*
X420470Y260159D01*
X420484Y260059D01*
X420501Y259961D01*
X420522Y259863D01*
X420546Y259766D01*
X420575Y259670D01*
X420607Y259575D01*
X420642Y259482D01*
X420681Y259390D01*
X420724Y259299D01*
X420770Y259211D01*
X420820Y259124D01*
X420872Y259039D01*
X420928Y258956D01*
X420987Y258875D01*
X421050Y258797D01*
X421115Y258721D01*
X421183Y258647D01*
X421253Y258577D01*
X421327Y258509D01*
X421403Y258444D01*
X421481Y258381D01*
X421562Y258322D01*
X421645Y258266D01*
X421730Y258214D01*
X421817Y258164D01*
X421905Y258118D01*
X421996Y258075D01*
X422088Y258036D01*
X422181Y258001D01*
X422276Y257969D01*
X422372Y257940D01*
X422469Y257916D01*
X422567Y257895D01*
X422665Y257878D01*
X422765Y257864D01*
X422864Y257855D01*
X422964Y257849D01*
X423064Y257847D01*
X425675Y257847D01*
X222579Y263244D02*
X221013Y263244D01*
X221013Y258023D01*
X224146Y258023D01*
X224235Y258025D01*
X224323Y258031D01*
X224411Y258040D01*
X224499Y258053D01*
X224586Y258070D01*
X224672Y258090D01*
X224757Y258115D01*
X224842Y258142D01*
X224925Y258174D01*
X225006Y258208D01*
X225086Y258247D01*
X225164Y258288D01*
X225241Y258333D01*
X225315Y258381D01*
X225388Y258432D01*
X225458Y258486D01*
X225525Y258544D01*
X225591Y258604D01*
X225653Y258666D01*
X225713Y258732D01*
X225771Y258799D01*
X225825Y258869D01*
X225876Y258942D01*
X225924Y259016D01*
X225969Y259093D01*
X226010Y259171D01*
X226049Y259251D01*
X226083Y259332D01*
X226115Y259415D01*
X226142Y259500D01*
X226167Y259585D01*
X226187Y259671D01*
X226204Y259758D01*
X226217Y259846D01*
X226226Y259934D01*
X226232Y260022D01*
X226234Y260111D01*
X226234Y265333D01*
X226232Y265422D01*
X226226Y265510D01*
X226217Y265598D01*
X226204Y265686D01*
X226187Y265773D01*
X226167Y265859D01*
X226142Y265944D01*
X226115Y266029D01*
X226083Y266112D01*
X226049Y266193D01*
X226010Y266273D01*
X225969Y266351D01*
X225924Y266428D01*
X225876Y266502D01*
X225825Y266575D01*
X225771Y266645D01*
X225713Y266712D01*
X225653Y266778D01*
X225591Y266840D01*
X225525Y266900D01*
X225458Y266958D01*
X225388Y267012D01*
X225315Y267063D01*
X225241Y267111D01*
X225164Y267156D01*
X225086Y267197D01*
X225006Y267236D01*
X224925Y267270D01*
X224842Y267302D01*
X224757Y267329D01*
X224672Y267354D01*
X224586Y267374D01*
X224499Y267391D01*
X224411Y267404D01*
X224323Y267413D01*
X224235Y267419D01*
X224146Y267421D01*
X221013Y267421D01*
X216481Y267421D02*
X216481Y258023D01*
X211259Y258023D02*
X216481Y267421D01*
X211259Y267421D02*
X211259Y258023D01*
X206727Y258023D02*
X206727Y267421D01*
X204116Y267421D01*
X204016Y267419D01*
X203916Y267413D01*
X203817Y267404D01*
X203717Y267390D01*
X203619Y267373D01*
X203521Y267352D01*
X203424Y267328D01*
X203328Y267299D01*
X203233Y267267D01*
X203140Y267232D01*
X203048Y267193D01*
X202957Y267150D01*
X202869Y267104D01*
X202782Y267054D01*
X202697Y267002D01*
X202614Y266946D01*
X202533Y266887D01*
X202455Y266824D01*
X202379Y266759D01*
X202305Y266691D01*
X202235Y266621D01*
X202167Y266547D01*
X202102Y266471D01*
X202039Y266393D01*
X201980Y266312D01*
X201924Y266229D01*
X201872Y266144D01*
X201822Y266057D01*
X201776Y265969D01*
X201733Y265878D01*
X201694Y265786D01*
X201659Y265693D01*
X201627Y265598D01*
X201598Y265502D01*
X201574Y265405D01*
X201553Y265307D01*
X201536Y265209D01*
X201522Y265109D01*
X201513Y265010D01*
X201507Y264910D01*
X201505Y264810D01*
X201506Y264810D02*
X201506Y260634D01*
X201505Y260634D02*
X201507Y260534D01*
X201513Y260434D01*
X201522Y260335D01*
X201536Y260235D01*
X201553Y260137D01*
X201574Y260039D01*
X201598Y259942D01*
X201627Y259846D01*
X201659Y259751D01*
X201694Y259658D01*
X201733Y259566D01*
X201776Y259475D01*
X201822Y259387D01*
X201872Y259300D01*
X201924Y259215D01*
X201980Y259132D01*
X202039Y259051D01*
X202102Y258973D01*
X202167Y258897D01*
X202235Y258823D01*
X202305Y258753D01*
X202379Y258685D01*
X202455Y258620D01*
X202533Y258557D01*
X202614Y258498D01*
X202697Y258442D01*
X202782Y258390D01*
X202869Y258340D01*
X202957Y258294D01*
X203048Y258251D01*
X203140Y258212D01*
X203233Y258177D01*
X203328Y258145D01*
X203424Y258116D01*
X203521Y258092D01*
X203619Y258071D01*
X203717Y258054D01*
X203817Y258040D01*
X203916Y258031D01*
X204016Y258025D01*
X204116Y258023D01*
X206727Y258023D01*
D11*
X263106Y264005D02*
X263106Y275689D01*
X259860Y275689D01*
X259747Y275687D01*
X259634Y275681D01*
X259521Y275671D01*
X259408Y275657D01*
X259296Y275640D01*
X259185Y275618D01*
X259075Y275593D01*
X258965Y275563D01*
X258857Y275530D01*
X258750Y275493D01*
X258644Y275453D01*
X258540Y275408D01*
X258437Y275360D01*
X258336Y275309D01*
X258237Y275254D01*
X258140Y275196D01*
X258045Y275134D01*
X257952Y275069D01*
X257862Y275001D01*
X257774Y274930D01*
X257688Y274855D01*
X257605Y274778D01*
X257525Y274698D01*
X257448Y274615D01*
X257373Y274529D01*
X257302Y274441D01*
X257234Y274351D01*
X257169Y274258D01*
X257107Y274163D01*
X257049Y274066D01*
X256994Y273967D01*
X256943Y273866D01*
X256895Y273763D01*
X256850Y273659D01*
X256810Y273553D01*
X256773Y273446D01*
X256740Y273338D01*
X256710Y273228D01*
X256685Y273118D01*
X256663Y273007D01*
X256646Y272895D01*
X256632Y272782D01*
X256622Y272669D01*
X256616Y272556D01*
X256614Y272443D01*
X256616Y272330D01*
X256622Y272217D01*
X256632Y272104D01*
X256646Y271991D01*
X256663Y271879D01*
X256685Y271768D01*
X256710Y271658D01*
X256740Y271548D01*
X256773Y271440D01*
X256810Y271333D01*
X256850Y271227D01*
X256895Y271123D01*
X256943Y271020D01*
X256994Y270919D01*
X257049Y270820D01*
X257107Y270723D01*
X257169Y270628D01*
X257234Y270535D01*
X257302Y270445D01*
X257373Y270357D01*
X257448Y270271D01*
X257525Y270188D01*
X257605Y270108D01*
X257688Y270031D01*
X257774Y269956D01*
X257862Y269885D01*
X257952Y269817D01*
X258045Y269752D01*
X258140Y269690D01*
X258237Y269632D01*
X258336Y269577D01*
X258437Y269526D01*
X258540Y269478D01*
X258644Y269433D01*
X258750Y269393D01*
X258857Y269356D01*
X258965Y269323D01*
X259075Y269293D01*
X259185Y269268D01*
X259296Y269246D01*
X259408Y269229D01*
X259521Y269215D01*
X259634Y269205D01*
X259747Y269199D01*
X259860Y269197D01*
X259860Y269198D02*
X263106Y269198D01*
X252226Y270496D02*
X248332Y270496D01*
X248233Y270494D01*
X248133Y270488D01*
X248034Y270479D01*
X247936Y270466D01*
X247838Y270449D01*
X247740Y270428D01*
X247644Y270403D01*
X247549Y270375D01*
X247455Y270343D01*
X247362Y270308D01*
X247270Y270269D01*
X247180Y270226D01*
X247092Y270181D01*
X247005Y270131D01*
X246921Y270079D01*
X246838Y270023D01*
X246758Y269965D01*
X246680Y269903D01*
X246605Y269838D01*
X246532Y269770D01*
X246462Y269700D01*
X246394Y269627D01*
X246329Y269552D01*
X246267Y269474D01*
X246209Y269394D01*
X246153Y269311D01*
X246101Y269227D01*
X246051Y269140D01*
X246006Y269052D01*
X245963Y268962D01*
X245924Y268870D01*
X245889Y268777D01*
X245857Y268683D01*
X245829Y268588D01*
X245804Y268492D01*
X245783Y268394D01*
X245766Y268296D01*
X245753Y268198D01*
X245744Y268099D01*
X245738Y267999D01*
X245736Y267900D01*
X245735Y267900D02*
X245735Y267251D01*
X245737Y267138D01*
X245743Y267025D01*
X245753Y266912D01*
X245767Y266799D01*
X245784Y266687D01*
X245806Y266576D01*
X245831Y266466D01*
X245861Y266356D01*
X245894Y266248D01*
X245931Y266141D01*
X245971Y266035D01*
X246016Y265931D01*
X246064Y265828D01*
X246115Y265727D01*
X246170Y265628D01*
X246228Y265531D01*
X246290Y265436D01*
X246355Y265343D01*
X246423Y265253D01*
X246494Y265165D01*
X246569Y265079D01*
X246646Y264996D01*
X246726Y264916D01*
X246809Y264839D01*
X246895Y264764D01*
X246983Y264693D01*
X247073Y264625D01*
X247166Y264560D01*
X247261Y264498D01*
X247358Y264440D01*
X247457Y264385D01*
X247558Y264334D01*
X247661Y264286D01*
X247765Y264241D01*
X247871Y264201D01*
X247978Y264164D01*
X248086Y264131D01*
X248196Y264101D01*
X248306Y264076D01*
X248417Y264054D01*
X248529Y264037D01*
X248642Y264023D01*
X248755Y264013D01*
X248868Y264007D01*
X248981Y264005D01*
X249094Y264007D01*
X249207Y264013D01*
X249320Y264023D01*
X249433Y264037D01*
X249545Y264054D01*
X249656Y264076D01*
X249766Y264101D01*
X249876Y264131D01*
X249984Y264164D01*
X250091Y264201D01*
X250197Y264241D01*
X250301Y264286D01*
X250404Y264334D01*
X250505Y264385D01*
X250604Y264440D01*
X250701Y264498D01*
X250796Y264560D01*
X250889Y264625D01*
X250979Y264693D01*
X251067Y264764D01*
X251153Y264839D01*
X251236Y264916D01*
X251316Y264996D01*
X251393Y265079D01*
X251468Y265165D01*
X251539Y265253D01*
X251607Y265343D01*
X251672Y265436D01*
X251734Y265531D01*
X251792Y265628D01*
X251847Y265727D01*
X251898Y265828D01*
X251946Y265931D01*
X251991Y266035D01*
X252031Y266141D01*
X252068Y266248D01*
X252101Y266356D01*
X252131Y266466D01*
X252156Y266576D01*
X252178Y266687D01*
X252195Y266799D01*
X252209Y266912D01*
X252219Y267025D01*
X252225Y267138D01*
X252227Y267251D01*
X252226Y267251D02*
X252226Y270496D01*
X252224Y270639D01*
X252218Y270782D01*
X252208Y270925D01*
X252194Y271067D01*
X252177Y271209D01*
X252155Y271351D01*
X252130Y271492D01*
X252100Y271632D01*
X252067Y271771D01*
X252030Y271909D01*
X251989Y272046D01*
X251945Y272182D01*
X251896Y272317D01*
X251844Y272450D01*
X251789Y272582D01*
X251729Y272712D01*
X251666Y272841D01*
X251600Y272968D01*
X251530Y273093D01*
X251457Y273215D01*
X251380Y273336D01*
X251300Y273455D01*
X251217Y273571D01*
X251131Y273686D01*
X251042Y273797D01*
X250949Y273907D01*
X250854Y274013D01*
X250755Y274117D01*
X250654Y274218D01*
X250550Y274317D01*
X250444Y274412D01*
X250334Y274505D01*
X250223Y274594D01*
X250108Y274680D01*
X249992Y274763D01*
X249873Y274843D01*
X249752Y274920D01*
X249630Y274993D01*
X249505Y275063D01*
X249378Y275129D01*
X249249Y275192D01*
X249119Y275252D01*
X248987Y275307D01*
X248854Y275359D01*
X248719Y275408D01*
X248583Y275452D01*
X248446Y275493D01*
X248308Y275530D01*
X248169Y275563D01*
X248029Y275593D01*
X247888Y275618D01*
X247746Y275640D01*
X247604Y275657D01*
X247462Y275671D01*
X247319Y275681D01*
X247176Y275687D01*
X247033Y275689D01*
X400842Y275641D02*
X400842Y263957D01*
X400842Y275641D02*
X397597Y275641D01*
X397484Y275639D01*
X397371Y275633D01*
X397258Y275623D01*
X397145Y275609D01*
X397033Y275592D01*
X396922Y275570D01*
X396812Y275545D01*
X396702Y275515D01*
X396594Y275482D01*
X396487Y275445D01*
X396381Y275405D01*
X396277Y275360D01*
X396174Y275312D01*
X396073Y275261D01*
X395974Y275206D01*
X395877Y275148D01*
X395782Y275086D01*
X395689Y275021D01*
X395599Y274953D01*
X395511Y274882D01*
X395425Y274807D01*
X395342Y274730D01*
X395262Y274650D01*
X395185Y274567D01*
X395110Y274481D01*
X395039Y274393D01*
X394971Y274303D01*
X394906Y274210D01*
X394844Y274115D01*
X394786Y274018D01*
X394731Y273919D01*
X394680Y273818D01*
X394632Y273715D01*
X394587Y273611D01*
X394547Y273505D01*
X394510Y273398D01*
X394477Y273290D01*
X394447Y273180D01*
X394422Y273070D01*
X394400Y272959D01*
X394383Y272847D01*
X394369Y272734D01*
X394359Y272621D01*
X394353Y272508D01*
X394351Y272395D01*
X394353Y272282D01*
X394359Y272169D01*
X394369Y272056D01*
X394383Y271943D01*
X394400Y271831D01*
X394422Y271720D01*
X394447Y271610D01*
X394477Y271500D01*
X394510Y271392D01*
X394547Y271285D01*
X394587Y271179D01*
X394632Y271075D01*
X394680Y270972D01*
X394731Y270871D01*
X394786Y270772D01*
X394844Y270675D01*
X394906Y270580D01*
X394971Y270487D01*
X395039Y270397D01*
X395110Y270309D01*
X395185Y270223D01*
X395262Y270140D01*
X395342Y270060D01*
X395425Y269983D01*
X395511Y269908D01*
X395599Y269837D01*
X395689Y269769D01*
X395782Y269704D01*
X395877Y269642D01*
X395974Y269584D01*
X396073Y269529D01*
X396174Y269478D01*
X396277Y269430D01*
X396381Y269385D01*
X396487Y269345D01*
X396594Y269308D01*
X396702Y269275D01*
X396812Y269245D01*
X396922Y269220D01*
X397033Y269198D01*
X397145Y269181D01*
X397258Y269167D01*
X397371Y269157D01*
X397484Y269151D01*
X397597Y269149D01*
X397597Y269150D02*
X400842Y269150D01*
X389963Y273044D02*
X386717Y275641D01*
X386717Y263957D01*
X383472Y263957D02*
X389963Y263957D01*
D12*
X336398Y297713D02*
X336398Y298475D01*
X333858Y298475D01*
X333858Y296951D01*
X333860Y296890D01*
X333865Y296829D01*
X333875Y296768D01*
X333888Y296708D01*
X333904Y296649D01*
X333924Y296591D01*
X333948Y296534D01*
X333974Y296479D01*
X334005Y296425D01*
X334038Y296374D01*
X334074Y296324D01*
X334114Y296277D01*
X334156Y296233D01*
X334200Y296191D01*
X334247Y296151D01*
X334297Y296115D01*
X334348Y296082D01*
X334402Y296051D01*
X334457Y296025D01*
X334514Y296001D01*
X334572Y295981D01*
X334631Y295965D01*
X334691Y295952D01*
X334752Y295942D01*
X334813Y295937D01*
X334874Y295935D01*
X337414Y295935D01*
X337475Y295937D01*
X337536Y295942D01*
X337597Y295952D01*
X337657Y295965D01*
X337716Y295981D01*
X337774Y296001D01*
X337831Y296025D01*
X337886Y296051D01*
X337940Y296082D01*
X337991Y296115D01*
X338041Y296151D01*
X338088Y296191D01*
X338132Y296233D01*
X338174Y296277D01*
X338214Y296324D01*
X338250Y296374D01*
X338283Y296425D01*
X338314Y296479D01*
X338340Y296534D01*
X338364Y296591D01*
X338384Y296649D01*
X338400Y296708D01*
X338413Y296768D01*
X338423Y296829D01*
X338428Y296890D01*
X338430Y296951D01*
X338430Y298475D01*
X338430Y300812D02*
X333858Y300812D01*
X333858Y303352D02*
X338430Y300812D01*
X338430Y303352D02*
X333858Y303352D01*
X333858Y305689D02*
X338430Y305689D01*
X338430Y306959D01*
X338428Y307028D01*
X338423Y307096D01*
X338413Y307164D01*
X338400Y307232D01*
X338384Y307299D01*
X338364Y307365D01*
X338340Y307429D01*
X338313Y307492D01*
X338282Y307554D01*
X338248Y307614D01*
X338211Y307672D01*
X338171Y307728D01*
X338128Y307781D01*
X338082Y307832D01*
X338033Y307881D01*
X337982Y307927D01*
X337929Y307970D01*
X337873Y308010D01*
X337815Y308047D01*
X337755Y308081D01*
X337693Y308112D01*
X337630Y308139D01*
X337566Y308163D01*
X337500Y308183D01*
X337433Y308199D01*
X337365Y308212D01*
X337297Y308222D01*
X337229Y308227D01*
X337160Y308229D01*
X335128Y308229D01*
X335059Y308227D01*
X334991Y308222D01*
X334923Y308212D01*
X334855Y308199D01*
X334788Y308183D01*
X334722Y308163D01*
X334658Y308139D01*
X334595Y308112D01*
X334533Y308081D01*
X334473Y308047D01*
X334415Y308010D01*
X334359Y307970D01*
X334306Y307927D01*
X334255Y307881D01*
X334206Y307832D01*
X334160Y307781D01*
X334117Y307728D01*
X334077Y307672D01*
X334040Y307614D01*
X334006Y307554D01*
X333975Y307492D01*
X333948Y307429D01*
X333924Y307365D01*
X333904Y307299D01*
X333888Y307232D01*
X333875Y307164D01*
X333865Y307096D01*
X333860Y307028D01*
X333858Y306959D01*
X333858Y305689D01*
X334068Y271706D02*
X334068Y270436D01*
X334068Y271706D02*
X334070Y271776D01*
X334076Y271846D01*
X334085Y271915D01*
X334099Y271984D01*
X334116Y272052D01*
X334137Y272118D01*
X334161Y272184D01*
X334189Y272248D01*
X334221Y272310D01*
X334256Y272371D01*
X334294Y272430D01*
X334336Y272486D01*
X334380Y272540D01*
X334428Y272592D01*
X334478Y272640D01*
X334531Y272686D01*
X334586Y272729D01*
X334643Y272769D01*
X334703Y272806D01*
X334765Y272839D01*
X334828Y272869D01*
X334893Y272895D01*
X334959Y272918D01*
X335026Y272937D01*
X335095Y272952D01*
X335164Y272964D01*
X335233Y272972D01*
X335303Y272976D01*
X335373Y272976D01*
X335443Y272972D01*
X335512Y272964D01*
X335581Y272952D01*
X335650Y272937D01*
X335717Y272918D01*
X335783Y272895D01*
X335848Y272869D01*
X335911Y272839D01*
X335973Y272806D01*
X336033Y272769D01*
X336090Y272729D01*
X336145Y272686D01*
X336198Y272640D01*
X336248Y272592D01*
X336296Y272540D01*
X336340Y272486D01*
X336382Y272430D01*
X336420Y272371D01*
X336455Y272310D01*
X336487Y272248D01*
X336515Y272184D01*
X336539Y272118D01*
X336560Y272052D01*
X336577Y271984D01*
X336591Y271915D01*
X336600Y271846D01*
X336606Y271776D01*
X336608Y271706D01*
X338640Y271960D02*
X338640Y270436D01*
X338640Y271960D02*
X338638Y272023D01*
X338632Y272085D01*
X338623Y272147D01*
X338609Y272208D01*
X338592Y272268D01*
X338571Y272327D01*
X338547Y272385D01*
X338519Y272441D01*
X338488Y272495D01*
X338453Y272547D01*
X338416Y272597D01*
X338375Y272644D01*
X338331Y272689D01*
X338285Y272732D01*
X338236Y272771D01*
X338185Y272807D01*
X338132Y272840D01*
X338077Y272869D01*
X338020Y272896D01*
X337962Y272918D01*
X337902Y272937D01*
X337841Y272952D01*
X337780Y272964D01*
X337718Y272972D01*
X337655Y272976D01*
X337593Y272976D01*
X337530Y272972D01*
X337468Y272964D01*
X337407Y272952D01*
X337346Y272937D01*
X337286Y272918D01*
X337228Y272896D01*
X337171Y272869D01*
X337116Y272840D01*
X337063Y272807D01*
X337012Y272771D01*
X336963Y272732D01*
X336917Y272689D01*
X336873Y272644D01*
X336832Y272597D01*
X336795Y272547D01*
X336760Y272495D01*
X336729Y272441D01*
X336701Y272385D01*
X336677Y272327D01*
X336656Y272268D01*
X336639Y272208D01*
X336625Y272147D01*
X336616Y272085D01*
X336610Y272023D01*
X336608Y271960D01*
X336608Y270944D01*
X338640Y274754D02*
X334068Y276278D01*
X338640Y277802D01*
X334068Y279580D02*
X334068Y280850D01*
X334070Y280920D01*
X334076Y280990D01*
X334085Y281059D01*
X334099Y281128D01*
X334116Y281196D01*
X334137Y281262D01*
X334161Y281328D01*
X334189Y281392D01*
X334221Y281454D01*
X334256Y281515D01*
X334294Y281574D01*
X334336Y281630D01*
X334380Y281684D01*
X334428Y281736D01*
X334478Y281784D01*
X334531Y281830D01*
X334586Y281873D01*
X334643Y281913D01*
X334703Y281950D01*
X334765Y281983D01*
X334828Y282013D01*
X334893Y282039D01*
X334959Y282062D01*
X335026Y282081D01*
X335095Y282096D01*
X335164Y282108D01*
X335233Y282116D01*
X335303Y282120D01*
X335373Y282120D01*
X335443Y282116D01*
X335512Y282108D01*
X335581Y282096D01*
X335650Y282081D01*
X335717Y282062D01*
X335783Y282039D01*
X335848Y282013D01*
X335911Y281983D01*
X335973Y281950D01*
X336033Y281913D01*
X336090Y281873D01*
X336145Y281830D01*
X336198Y281784D01*
X336248Y281736D01*
X336296Y281684D01*
X336340Y281630D01*
X336382Y281574D01*
X336420Y281515D01*
X336455Y281454D01*
X336487Y281392D01*
X336515Y281328D01*
X336539Y281262D01*
X336560Y281196D01*
X336577Y281128D01*
X336591Y281059D01*
X336600Y280990D01*
X336606Y280920D01*
X336608Y280850D01*
X338640Y281104D02*
X338640Y279580D01*
X338640Y281104D02*
X338638Y281167D01*
X338632Y281229D01*
X338623Y281291D01*
X338609Y281352D01*
X338592Y281412D01*
X338571Y281471D01*
X338547Y281529D01*
X338519Y281585D01*
X338488Y281639D01*
X338453Y281691D01*
X338416Y281741D01*
X338375Y281788D01*
X338331Y281833D01*
X338285Y281876D01*
X338236Y281915D01*
X338185Y281951D01*
X338132Y281984D01*
X338077Y282013D01*
X338020Y282040D01*
X337962Y282062D01*
X337902Y282081D01*
X337841Y282096D01*
X337780Y282108D01*
X337718Y282116D01*
X337655Y282120D01*
X337593Y282120D01*
X337530Y282116D01*
X337468Y282108D01*
X337407Y282096D01*
X337346Y282081D01*
X337286Y282062D01*
X337228Y282040D01*
X337171Y282013D01*
X337116Y281984D01*
X337063Y281951D01*
X337012Y281915D01*
X336963Y281876D01*
X336917Y281833D01*
X336873Y281788D01*
X336832Y281741D01*
X336795Y281691D01*
X336760Y281639D01*
X336729Y281585D01*
X336701Y281529D01*
X336677Y281471D01*
X336656Y281412D01*
X336639Y281352D01*
X336625Y281291D01*
X336616Y281229D01*
X336610Y281167D01*
X336608Y281104D01*
X336608Y280088D01*
X313454Y295413D02*
X308374Y295413D01*
X313454Y295413D02*
X313454Y296824D01*
X313452Y296898D01*
X313446Y296971D01*
X313437Y297045D01*
X313423Y297117D01*
X313406Y297189D01*
X313385Y297260D01*
X313360Y297330D01*
X313332Y297398D01*
X313300Y297465D01*
X313265Y297530D01*
X313226Y297592D01*
X313185Y297653D01*
X313140Y297712D01*
X313092Y297768D01*
X313041Y297822D01*
X312987Y297873D01*
X312931Y297921D01*
X312872Y297966D01*
X312811Y298007D01*
X312749Y298046D01*
X312684Y298081D01*
X312617Y298113D01*
X312549Y298141D01*
X312479Y298166D01*
X312408Y298187D01*
X312336Y298204D01*
X312264Y298218D01*
X312190Y298227D01*
X312117Y298233D01*
X312043Y298235D01*
X311969Y298233D01*
X311896Y298227D01*
X311822Y298218D01*
X311750Y298204D01*
X311678Y298187D01*
X311607Y298166D01*
X311537Y298141D01*
X311469Y298113D01*
X311402Y298081D01*
X311338Y298046D01*
X311275Y298007D01*
X311214Y297966D01*
X311155Y297921D01*
X311099Y297873D01*
X311045Y297822D01*
X310994Y297768D01*
X310946Y297712D01*
X310901Y297653D01*
X310860Y297592D01*
X310821Y297530D01*
X310786Y297465D01*
X310754Y297398D01*
X310726Y297330D01*
X310701Y297260D01*
X310680Y297189D01*
X310663Y297117D01*
X310649Y297045D01*
X310640Y296971D01*
X310634Y296898D01*
X310632Y296824D01*
X310632Y295413D01*
X311196Y300195D02*
X311196Y301888D01*
X311194Y301954D01*
X311188Y302019D01*
X311179Y302084D01*
X311166Y302148D01*
X311149Y302212D01*
X311128Y302274D01*
X311104Y302335D01*
X311076Y302395D01*
X311045Y302453D01*
X311010Y302508D01*
X310973Y302562D01*
X310932Y302614D01*
X310888Y302663D01*
X310842Y302709D01*
X310793Y302753D01*
X310741Y302794D01*
X310687Y302831D01*
X310632Y302866D01*
X310574Y302897D01*
X310514Y302925D01*
X310453Y302949D01*
X310391Y302970D01*
X310327Y302987D01*
X310263Y303000D01*
X310198Y303009D01*
X310133Y303015D01*
X310067Y303017D01*
X309785Y303017D01*
X309711Y303015D01*
X309638Y303009D01*
X309564Y303000D01*
X309492Y302986D01*
X309420Y302969D01*
X309349Y302948D01*
X309279Y302923D01*
X309211Y302895D01*
X309144Y302863D01*
X309080Y302828D01*
X309017Y302789D01*
X308956Y302748D01*
X308897Y302703D01*
X308841Y302655D01*
X308787Y302604D01*
X308736Y302550D01*
X308688Y302494D01*
X308643Y302435D01*
X308602Y302374D01*
X308563Y302312D01*
X308528Y302247D01*
X308496Y302180D01*
X308468Y302112D01*
X308443Y302042D01*
X308422Y301971D01*
X308405Y301899D01*
X308391Y301827D01*
X308382Y301753D01*
X308376Y301680D01*
X308374Y301606D01*
X308376Y301532D01*
X308382Y301459D01*
X308391Y301385D01*
X308405Y301313D01*
X308422Y301241D01*
X308443Y301170D01*
X308468Y301100D01*
X308496Y301032D01*
X308528Y300965D01*
X308563Y300901D01*
X308602Y300838D01*
X308643Y300777D01*
X308688Y300718D01*
X308736Y300662D01*
X308787Y300608D01*
X308841Y300557D01*
X308897Y300509D01*
X308956Y300464D01*
X309017Y300423D01*
X309080Y300384D01*
X309144Y300349D01*
X309211Y300317D01*
X309279Y300289D01*
X309349Y300264D01*
X309420Y300243D01*
X309492Y300226D01*
X309564Y300212D01*
X309638Y300203D01*
X309711Y300197D01*
X309785Y300195D01*
X311196Y300195D01*
X311196Y300194D02*
X311289Y300196D01*
X311382Y300202D01*
X311475Y300211D01*
X311568Y300225D01*
X311659Y300242D01*
X311750Y300263D01*
X311840Y300288D01*
X311929Y300316D01*
X312017Y300348D01*
X312103Y300384D01*
X312188Y300423D01*
X312271Y300466D01*
X312352Y300512D01*
X312431Y300562D01*
X312508Y300614D01*
X312583Y300670D01*
X312655Y300729D01*
X312725Y300791D01*
X312793Y300855D01*
X312857Y300923D01*
X312919Y300993D01*
X312978Y301065D01*
X313034Y301140D01*
X313086Y301217D01*
X313136Y301296D01*
X313182Y301377D01*
X313225Y301460D01*
X313264Y301545D01*
X313300Y301631D01*
X313332Y301719D01*
X313360Y301808D01*
X313385Y301898D01*
X313406Y301989D01*
X313423Y302080D01*
X313437Y302173D01*
X313446Y302266D01*
X313452Y302359D01*
X313454Y302452D01*
X313454Y305392D02*
X309785Y305392D01*
X309711Y305394D01*
X309638Y305400D01*
X309564Y305409D01*
X309492Y305423D01*
X309420Y305440D01*
X309349Y305461D01*
X309279Y305486D01*
X309211Y305514D01*
X309144Y305546D01*
X309080Y305581D01*
X309017Y305620D01*
X308956Y305661D01*
X308897Y305706D01*
X308841Y305754D01*
X308787Y305805D01*
X308736Y305859D01*
X308688Y305915D01*
X308643Y305974D01*
X308602Y306035D01*
X308563Y306098D01*
X308528Y306162D01*
X308496Y306229D01*
X308468Y306297D01*
X308443Y306367D01*
X308422Y306438D01*
X308405Y306510D01*
X308391Y306582D01*
X308382Y306656D01*
X308376Y306729D01*
X308374Y306803D01*
X308376Y306877D01*
X308382Y306950D01*
X308391Y307024D01*
X308405Y307096D01*
X308422Y307168D01*
X308443Y307239D01*
X308468Y307309D01*
X308496Y307377D01*
X308528Y307444D01*
X308563Y307509D01*
X308602Y307571D01*
X308643Y307632D01*
X308688Y307691D01*
X308736Y307747D01*
X308787Y307801D01*
X308841Y307852D01*
X308897Y307900D01*
X308956Y307945D01*
X309017Y307986D01*
X309080Y308025D01*
X309144Y308060D01*
X309211Y308092D01*
X309279Y308120D01*
X309349Y308145D01*
X309420Y308166D01*
X309492Y308183D01*
X309564Y308197D01*
X309638Y308206D01*
X309711Y308212D01*
X309785Y308214D01*
X313454Y308214D01*
X313365Y270218D02*
X308285Y270218D01*
X313365Y270218D02*
X313365Y271630D01*
X313363Y271704D01*
X313357Y271777D01*
X313348Y271851D01*
X313334Y271923D01*
X313317Y271995D01*
X313296Y272066D01*
X313271Y272136D01*
X313243Y272204D01*
X313211Y272271D01*
X313176Y272336D01*
X313137Y272398D01*
X313096Y272459D01*
X313051Y272518D01*
X313003Y272574D01*
X312952Y272628D01*
X312898Y272679D01*
X312842Y272727D01*
X312783Y272772D01*
X312722Y272813D01*
X312660Y272852D01*
X312595Y272887D01*
X312528Y272919D01*
X312460Y272947D01*
X312390Y272972D01*
X312319Y272993D01*
X312247Y273010D01*
X312175Y273024D01*
X312101Y273033D01*
X312028Y273039D01*
X311954Y273041D01*
X311880Y273039D01*
X311807Y273033D01*
X311733Y273024D01*
X311661Y273010D01*
X311589Y272993D01*
X311518Y272972D01*
X311448Y272947D01*
X311380Y272919D01*
X311313Y272887D01*
X311249Y272852D01*
X311186Y272813D01*
X311125Y272772D01*
X311066Y272727D01*
X311010Y272679D01*
X310956Y272628D01*
X310905Y272574D01*
X310857Y272518D01*
X310812Y272459D01*
X310771Y272398D01*
X310732Y272336D01*
X310697Y272271D01*
X310665Y272204D01*
X310637Y272136D01*
X310612Y272066D01*
X310591Y271995D01*
X310574Y271923D01*
X310560Y271851D01*
X310551Y271777D01*
X310545Y271704D01*
X310543Y271630D01*
X310543Y270218D01*
X311107Y275000D02*
X311107Y276694D01*
X311105Y276760D01*
X311099Y276825D01*
X311090Y276890D01*
X311077Y276954D01*
X311060Y277018D01*
X311039Y277080D01*
X311015Y277141D01*
X310987Y277201D01*
X310956Y277259D01*
X310921Y277314D01*
X310884Y277368D01*
X310843Y277420D01*
X310799Y277469D01*
X310753Y277515D01*
X310704Y277559D01*
X310652Y277600D01*
X310598Y277637D01*
X310543Y277672D01*
X310485Y277703D01*
X310425Y277731D01*
X310364Y277755D01*
X310302Y277776D01*
X310238Y277793D01*
X310174Y277806D01*
X310109Y277815D01*
X310044Y277821D01*
X309978Y277823D01*
X309696Y277823D01*
X309622Y277821D01*
X309549Y277815D01*
X309475Y277806D01*
X309403Y277792D01*
X309331Y277775D01*
X309260Y277754D01*
X309190Y277729D01*
X309122Y277701D01*
X309055Y277669D01*
X308991Y277634D01*
X308928Y277595D01*
X308867Y277554D01*
X308808Y277509D01*
X308752Y277461D01*
X308698Y277410D01*
X308647Y277356D01*
X308599Y277300D01*
X308554Y277241D01*
X308513Y277180D01*
X308474Y277118D01*
X308439Y277053D01*
X308407Y276986D01*
X308379Y276918D01*
X308354Y276848D01*
X308333Y276777D01*
X308316Y276705D01*
X308302Y276633D01*
X308293Y276559D01*
X308287Y276486D01*
X308285Y276412D01*
X308287Y276338D01*
X308293Y276265D01*
X308302Y276191D01*
X308316Y276119D01*
X308333Y276047D01*
X308354Y275976D01*
X308379Y275906D01*
X308407Y275838D01*
X308439Y275771D01*
X308474Y275707D01*
X308513Y275644D01*
X308554Y275583D01*
X308599Y275524D01*
X308647Y275468D01*
X308698Y275414D01*
X308752Y275363D01*
X308808Y275315D01*
X308867Y275270D01*
X308928Y275229D01*
X308991Y275190D01*
X309055Y275155D01*
X309122Y275123D01*
X309190Y275095D01*
X309260Y275070D01*
X309331Y275049D01*
X309403Y275032D01*
X309475Y275018D01*
X309549Y275009D01*
X309622Y275003D01*
X309696Y275001D01*
X309696Y275000D02*
X311107Y275000D01*
X311200Y275002D01*
X311293Y275008D01*
X311386Y275017D01*
X311479Y275031D01*
X311570Y275048D01*
X311661Y275069D01*
X311751Y275094D01*
X311840Y275122D01*
X311928Y275154D01*
X312014Y275190D01*
X312099Y275229D01*
X312182Y275272D01*
X312263Y275318D01*
X312342Y275368D01*
X312419Y275420D01*
X312494Y275476D01*
X312566Y275535D01*
X312636Y275597D01*
X312704Y275661D01*
X312768Y275729D01*
X312830Y275799D01*
X312889Y275871D01*
X312945Y275946D01*
X312997Y276023D01*
X313047Y276102D01*
X313093Y276183D01*
X313136Y276266D01*
X313175Y276351D01*
X313211Y276437D01*
X313243Y276525D01*
X313271Y276614D01*
X313296Y276704D01*
X313317Y276795D01*
X313334Y276886D01*
X313348Y276979D01*
X313357Y277072D01*
X313363Y277165D01*
X313365Y277258D01*
X313365Y280197D02*
X308285Y280197D01*
X313365Y280197D02*
X313365Y281608D01*
X313363Y281682D01*
X313357Y281755D01*
X313348Y281829D01*
X313334Y281901D01*
X313317Y281973D01*
X313296Y282044D01*
X313271Y282114D01*
X313243Y282182D01*
X313211Y282249D01*
X313176Y282314D01*
X313137Y282376D01*
X313096Y282437D01*
X313051Y282496D01*
X313003Y282552D01*
X312952Y282606D01*
X312898Y282657D01*
X312842Y282705D01*
X312783Y282750D01*
X312722Y282791D01*
X312660Y282830D01*
X312595Y282865D01*
X312528Y282897D01*
X312460Y282925D01*
X312390Y282950D01*
X312319Y282971D01*
X312247Y282988D01*
X312175Y283002D01*
X312101Y283011D01*
X312028Y283017D01*
X311954Y283019D01*
X311954Y283020D02*
X309696Y283020D01*
X309696Y283019D02*
X309622Y283017D01*
X309549Y283011D01*
X309475Y283002D01*
X309403Y282988D01*
X309331Y282971D01*
X309260Y282950D01*
X309190Y282925D01*
X309122Y282897D01*
X309055Y282865D01*
X308991Y282830D01*
X308928Y282791D01*
X308867Y282750D01*
X308808Y282705D01*
X308752Y282657D01*
X308698Y282606D01*
X308647Y282552D01*
X308599Y282496D01*
X308554Y282437D01*
X308513Y282376D01*
X308474Y282314D01*
X308439Y282249D01*
X308407Y282182D01*
X308379Y282114D01*
X308354Y282044D01*
X308333Y281973D01*
X308316Y281901D01*
X308302Y281829D01*
X308293Y281755D01*
X308287Y281682D01*
X308285Y281608D01*
X308285Y280197D01*
X360510Y270605D02*
X365590Y270605D01*
X365590Y272016D01*
X365588Y272090D01*
X365582Y272163D01*
X365573Y272237D01*
X365559Y272309D01*
X365542Y272381D01*
X365521Y272452D01*
X365496Y272522D01*
X365468Y272590D01*
X365436Y272657D01*
X365401Y272722D01*
X365362Y272784D01*
X365321Y272845D01*
X365276Y272904D01*
X365228Y272960D01*
X365177Y273014D01*
X365123Y273065D01*
X365067Y273113D01*
X365008Y273158D01*
X364947Y273199D01*
X364885Y273238D01*
X364820Y273273D01*
X364753Y273305D01*
X364685Y273333D01*
X364615Y273358D01*
X364544Y273379D01*
X364472Y273396D01*
X364400Y273410D01*
X364326Y273419D01*
X364253Y273425D01*
X364179Y273427D01*
X364105Y273425D01*
X364032Y273419D01*
X363958Y273410D01*
X363886Y273396D01*
X363814Y273379D01*
X363743Y273358D01*
X363673Y273333D01*
X363605Y273305D01*
X363538Y273273D01*
X363474Y273238D01*
X363411Y273199D01*
X363350Y273158D01*
X363291Y273113D01*
X363235Y273065D01*
X363181Y273014D01*
X363130Y272960D01*
X363082Y272904D01*
X363037Y272845D01*
X362996Y272784D01*
X362957Y272722D01*
X362922Y272657D01*
X362890Y272590D01*
X362862Y272522D01*
X362837Y272452D01*
X362816Y272381D01*
X362799Y272309D01*
X362785Y272237D01*
X362776Y272163D01*
X362770Y272090D01*
X362768Y272016D01*
X362768Y270605D01*
X364461Y275387D02*
X365590Y276798D01*
X360510Y276798D01*
X360510Y275387D02*
X360510Y278209D01*
X360510Y280583D02*
X365590Y280583D01*
X365590Y281994D01*
X365588Y282068D01*
X365582Y282141D01*
X365573Y282215D01*
X365559Y282287D01*
X365542Y282359D01*
X365521Y282430D01*
X365496Y282500D01*
X365468Y282568D01*
X365436Y282635D01*
X365401Y282700D01*
X365362Y282762D01*
X365321Y282823D01*
X365276Y282882D01*
X365228Y282938D01*
X365177Y282992D01*
X365123Y283043D01*
X365067Y283091D01*
X365008Y283136D01*
X364947Y283177D01*
X364885Y283216D01*
X364820Y283251D01*
X364753Y283283D01*
X364685Y283311D01*
X364615Y283336D01*
X364544Y283357D01*
X364472Y283374D01*
X364400Y283388D01*
X364326Y283397D01*
X364253Y283403D01*
X364179Y283405D01*
X364179Y283406D02*
X361921Y283406D01*
X361921Y283405D02*
X361847Y283403D01*
X361774Y283397D01*
X361700Y283388D01*
X361628Y283374D01*
X361556Y283357D01*
X361485Y283336D01*
X361415Y283311D01*
X361347Y283283D01*
X361280Y283251D01*
X361216Y283216D01*
X361153Y283177D01*
X361092Y283136D01*
X361033Y283091D01*
X360977Y283043D01*
X360923Y282992D01*
X360872Y282938D01*
X360824Y282882D01*
X360779Y282823D01*
X360738Y282762D01*
X360699Y282700D01*
X360664Y282635D01*
X360632Y282568D01*
X360604Y282500D01*
X360579Y282430D01*
X360558Y282359D01*
X360541Y282287D01*
X360527Y282215D01*
X360518Y282141D01*
X360512Y282068D01*
X360510Y281994D01*
X360510Y280583D01*
X360383Y295626D02*
X365463Y295626D01*
X365463Y297037D01*
X365461Y297111D01*
X365455Y297184D01*
X365446Y297258D01*
X365432Y297330D01*
X365415Y297402D01*
X365394Y297473D01*
X365369Y297543D01*
X365341Y297611D01*
X365309Y297678D01*
X365274Y297743D01*
X365235Y297805D01*
X365194Y297866D01*
X365149Y297925D01*
X365101Y297981D01*
X365050Y298035D01*
X364996Y298086D01*
X364940Y298134D01*
X364881Y298179D01*
X364820Y298220D01*
X364758Y298259D01*
X364693Y298294D01*
X364626Y298326D01*
X364558Y298354D01*
X364488Y298379D01*
X364417Y298400D01*
X364345Y298417D01*
X364273Y298431D01*
X364199Y298440D01*
X364126Y298446D01*
X364052Y298448D01*
X363978Y298446D01*
X363905Y298440D01*
X363831Y298431D01*
X363759Y298417D01*
X363687Y298400D01*
X363616Y298379D01*
X363546Y298354D01*
X363478Y298326D01*
X363411Y298294D01*
X363347Y298259D01*
X363284Y298220D01*
X363223Y298179D01*
X363164Y298134D01*
X363108Y298086D01*
X363054Y298035D01*
X363003Y297981D01*
X362955Y297925D01*
X362910Y297866D01*
X362869Y297805D01*
X362830Y297743D01*
X362795Y297678D01*
X362763Y297611D01*
X362735Y297543D01*
X362710Y297473D01*
X362689Y297402D01*
X362672Y297330D01*
X362658Y297258D01*
X362649Y297184D01*
X362643Y297111D01*
X362641Y297037D01*
X362641Y295626D01*
X364334Y300408D02*
X365463Y301819D01*
X360383Y301819D01*
X360383Y300408D02*
X360383Y303230D01*
X361794Y305605D02*
X365463Y305605D01*
X361794Y305605D02*
X361720Y305607D01*
X361647Y305613D01*
X361573Y305622D01*
X361501Y305636D01*
X361429Y305653D01*
X361358Y305674D01*
X361288Y305699D01*
X361220Y305727D01*
X361153Y305759D01*
X361089Y305794D01*
X361026Y305833D01*
X360965Y305874D01*
X360906Y305919D01*
X360850Y305967D01*
X360796Y306018D01*
X360745Y306072D01*
X360697Y306128D01*
X360652Y306187D01*
X360611Y306248D01*
X360572Y306311D01*
X360537Y306375D01*
X360505Y306442D01*
X360477Y306510D01*
X360452Y306580D01*
X360431Y306651D01*
X360414Y306723D01*
X360400Y306795D01*
X360391Y306869D01*
X360385Y306942D01*
X360383Y307016D01*
X360385Y307090D01*
X360391Y307163D01*
X360400Y307237D01*
X360414Y307309D01*
X360431Y307381D01*
X360452Y307452D01*
X360477Y307522D01*
X360505Y307590D01*
X360537Y307657D01*
X360572Y307722D01*
X360611Y307784D01*
X360652Y307845D01*
X360697Y307904D01*
X360745Y307960D01*
X360796Y308014D01*
X360850Y308065D01*
X360906Y308113D01*
X360965Y308158D01*
X361026Y308199D01*
X361089Y308238D01*
X361153Y308273D01*
X361220Y308305D01*
X361288Y308333D01*
X361358Y308358D01*
X361429Y308379D01*
X361501Y308396D01*
X361573Y308410D01*
X361647Y308419D01*
X361720Y308425D01*
X361794Y308427D01*
X365463Y308427D01*
D10*
X349726Y319465D02*
X348499Y319465D01*
X348499Y315373D01*
X350954Y315373D01*
X351032Y315375D01*
X351110Y315380D01*
X351187Y315390D01*
X351264Y315403D01*
X351340Y315419D01*
X351415Y315439D01*
X351489Y315463D01*
X351562Y315490D01*
X351634Y315521D01*
X351704Y315555D01*
X351773Y315592D01*
X351839Y315633D01*
X351904Y315677D01*
X351966Y315723D01*
X352026Y315773D01*
X352084Y315825D01*
X352139Y315880D01*
X352191Y315938D01*
X352241Y315998D01*
X352287Y316060D01*
X352331Y316125D01*
X352372Y316192D01*
X352409Y316260D01*
X352443Y316330D01*
X352474Y316402D01*
X352501Y316475D01*
X352525Y316549D01*
X352545Y316624D01*
X352561Y316700D01*
X352574Y316777D01*
X352584Y316854D01*
X352589Y316932D01*
X352591Y317010D01*
X352591Y321102D01*
X352589Y321180D01*
X352584Y321258D01*
X352574Y321335D01*
X352561Y321412D01*
X352545Y321488D01*
X352525Y321563D01*
X352501Y321637D01*
X352474Y321710D01*
X352443Y321782D01*
X352409Y321852D01*
X352372Y321921D01*
X352331Y321987D01*
X352287Y322052D01*
X352241Y322114D01*
X352191Y322174D01*
X352139Y322232D01*
X352084Y322287D01*
X352026Y322339D01*
X351966Y322389D01*
X351904Y322435D01*
X351839Y322479D01*
X351773Y322520D01*
X351704Y322557D01*
X351634Y322591D01*
X351562Y322622D01*
X351489Y322649D01*
X351415Y322673D01*
X351340Y322693D01*
X351264Y322709D01*
X351187Y322722D01*
X351110Y322732D01*
X351032Y322737D01*
X350954Y322739D01*
X348499Y322739D01*
X344788Y322739D02*
X344788Y315373D01*
X340696Y315373D02*
X344788Y322739D01*
X340696Y322739D02*
X340696Y315373D01*
X336985Y315373D02*
X336985Y322739D01*
X334939Y322739D01*
X334850Y322737D01*
X334761Y322731D01*
X334672Y322721D01*
X334584Y322708D01*
X334496Y322691D01*
X334409Y322669D01*
X334324Y322644D01*
X334239Y322616D01*
X334156Y322583D01*
X334074Y322547D01*
X333994Y322508D01*
X333916Y322465D01*
X333840Y322419D01*
X333765Y322369D01*
X333693Y322316D01*
X333624Y322260D01*
X333557Y322201D01*
X333492Y322140D01*
X333431Y322075D01*
X333372Y322008D01*
X333316Y321939D01*
X333263Y321867D01*
X333213Y321792D01*
X333167Y321716D01*
X333124Y321638D01*
X333085Y321558D01*
X333049Y321476D01*
X333016Y321393D01*
X332988Y321308D01*
X332963Y321223D01*
X332941Y321136D01*
X332924Y321048D01*
X332911Y320960D01*
X332901Y320871D01*
X332895Y320782D01*
X332893Y320693D01*
X332893Y317419D01*
X332895Y317330D01*
X332901Y317241D01*
X332911Y317152D01*
X332924Y317064D01*
X332941Y316976D01*
X332963Y316889D01*
X332988Y316804D01*
X333016Y316719D01*
X333049Y316636D01*
X333085Y316554D01*
X333124Y316474D01*
X333167Y316396D01*
X333213Y316320D01*
X333263Y316245D01*
X333316Y316173D01*
X333372Y316104D01*
X333431Y316037D01*
X333492Y315972D01*
X333557Y315911D01*
X333624Y315852D01*
X333693Y315796D01*
X333765Y315743D01*
X333840Y315693D01*
X333916Y315647D01*
X333994Y315604D01*
X334074Y315565D01*
X334156Y315529D01*
X334239Y315496D01*
X334324Y315468D01*
X334409Y315443D01*
X334496Y315421D01*
X334584Y315404D01*
X334672Y315391D01*
X334761Y315381D01*
X334850Y315375D01*
X334939Y315373D01*
X336985Y315373D01*
M02*
